<svg width="338" height="337" viewBox="0 0 338 337" fill="none" xmlns="http://www.w3.org/2000/svg">
<path d="M203.224 41.0379C273.558 59.8838 315.263 132.119 296.417 202.453C277.572 272.787 205.336 314.492 135.002 295.646C64.6685 276.8 22.9633 204.565 41.8092 134.231C60.655 63.8972 132.891 22.192 203.224 41.0379ZM204.638 35.7628C186.761 30.9729 168.411 29.8252 150.206 32.3597C132.649 34.8168 115.905 40.5699 100.447 49.4944C84.9893 58.419 71.635 70.0431 60.7287 84.0192C49.4308 98.5186 41.2655 114.925 36.4598 132.86C31.6698 150.737 30.5221 169.087 33.0566 187.293C35.5137 204.85 41.2668 221.593 50.1914 237.051C59.1159 252.509 70.74 265.863 84.7162 276.77C99.2156 288.067 115.622 296.233 133.557 301.038C151.434 305.828 169.784 306.976 187.99 304.442C205.546 301.985 222.29 296.231 237.748 287.307C253.206 278.382 266.56 266.758 277.467 252.782C288.764 238.283 296.93 221.876 301.735 203.941C306.525 186.064 307.673 167.714 305.139 149.509C302.681 131.952 296.928 115.208 288.004 99.7501C279.079 84.2923 267.455 70.938 253.479 60.0317C238.995 48.6753 222.514 40.5528 204.638 35.7628Z" fill="white"/>
<path d="M78.241 197.075C78.7432 198.718 78.9682 200.223 78.8728 201.516C78.7774 202.81 78.4791 203.924 77.9619 204.916C77.4919 205.732 76.8617 206.443 76.0872 206.989C75.3126 207.535 74.5108 207.949 73.6232 208.214L73.0172 208.365C72.1296 208.63 71.2148 208.762 70.2885 208.702C69.3623 208.642 68.4088 208.45 67.5767 208.038C66.5845 207.521 65.6552 206.77 64.8629 205.741C64.0707 204.712 63.4156 203.405 62.9133 201.763L62.6486 200.876C61.9632 198.745 61.8483 196.829 62.2451 195.114C62.5791 193.633 63.2177 192.422 64.2194 191.497C65.0725 190.657 66.1129 190.057 67.2821 189.679L67.8881 189.527C69.0573 189.149 70.2651 189.096 71.4687 189.293C72.8482 189.537 74.0748 190.117 75.1172 191.15C76.3626 192.363 77.3066 193.998 77.9177 196.172L78.241 197.075ZM72.1782 203.994C73.273 203.66 74.1219 203.07 74.6076 202.195C75.2734 201.117 75.3143 199.558 74.6834 197.693C74.111 195.843 73.2486 194.607 72.0806 194.043C71.19 193.616 70.1464 193.524 69.0516 193.859L68.7701 193.972C68.297 194.097 67.7924 194.339 67.3895 194.67C66.9279 194.986 66.6421 195.35 66.3249 195.83C65.6434 196.967 65.6182 198.467 66.1319 200.301C66.6886 202.209 67.6253 203.403 68.7933 203.967C69.6839 204.394 70.6688 204.469 71.838 204.092L72.1782 203.994Z" fill="white"/>
<path d="M74.2189 220.058C75.5011 219.961 76.8618 219.572 78.301 218.89C80.0961 218.052 82.4585 216.737 85.271 214.915L93.3198 227.312L83.2001 233.897L84.5773 236.025L79.5468 239.326L77.323 235.903L79.5253 234.483L72.7679 224.066L70.5656 225.486L68.3417 222.064L73.3723 218.763L74.2189 220.058ZM80.8905 230.326L88.1233 225.605L84.608 220.203C82.9416 221.264 81.4553 222.122 80.0475 222.687C78.6397 223.252 77.4706 223.63 76.5715 223.703L80.8905 230.326Z" fill="white"/>
<path d="M99.6182 255.383L103.701 250.698L97.172 245.054L93.0897 249.739L89.8254 246.917L99.9863 235.254L103.251 238.076L99.5126 242.414L106.041 248.058L109.838 243.736L113.102 246.558L102.941 258.221L99.6182 255.383Z" fill="white"/>
<path d="M126.45 271.305L126.532 268.186L118.937 264.643L116.562 266.708L112.664 264.847L125.494 253.773L130.677 256.23L130.567 273.288L126.45 271.305ZM126.591 264.684L126.736 257.812L121.567 262.333L126.591 264.684Z" fill="white"/>
<path d="M170.403 282.391L170.535 279.788L156.062 279.177L156.691 263.703L160.986 263.849L160.518 275.91L167.976 276.213L168.443 264.151L172.739 264.297L172.271 276.358L174.757 276.459L174.523 282.49L170.403 282.391Z" fill="white"/>
<path d="M183.104 263.368L196.948 260.23L197.702 263.51L188.01 265.687L188.543 268.154L197.969 266.032L198.751 269.445L189.324 271.568L189.943 274.183L199.768 271.979L200.506 275.318L186.529 278.483L183.104 263.368Z" fill="white"/>
<path d="M224.202 264.957L221.277 259.462L213.599 263.498L216.524 268.993L212.723 270.99L205.535 257.254L209.337 255.257L211.989 260.365L219.666 256.329L217.014 251.221L220.816 249.224L228.003 262.96L224.202 264.957Z" fill="white"/>
<path d="M248.734 245.837L245.855 244.626L239.797 250.353L240.838 253.27L237.727 256.205L232.078 240.243L236.281 236.281L252.115 242.597L248.734 245.837ZM242.64 243.262L236.252 240.608L238.601 247.08L242.64 243.262Z" fill="white"/>
<path d="M69.8911 119.455C70.6825 117.908 71.5126 116.685 72.44 115.803C73.3675 114.921 74.3493 114.304 75.4441 113.97C76.3903 113.72 77.3051 113.589 78.2157 113.707C79.1263 113.825 80.0054 114.061 80.8375 114.472L81.3922 114.747C82.2243 115.158 82.9663 115.671 83.6026 116.344C84.2389 117.017 84.7852 117.792 85.1085 118.695C85.5177 119.747 85.6453 120.912 85.5499 122.205C85.4546 123.499 85.0033 124.949 84.2276 126.437L83.8162 127.269C82.8406 129.269 81.6232 130.765 80.164 131.756C78.9279 132.618 77.6258 133.023 76.2421 133.029C75.05 133.024 73.862 132.768 72.7526 132.22L72.1979 131.946C71.0885 131.397 70.1591 130.645 69.4098 129.691C68.5747 128.588 68.1111 127.27 68.0621 125.812C68.0172 124.104 68.4454 122.271 69.4368 120.212L69.8911 119.455ZM79.062 118.52C78.0112 117.987 77.0263 117.911 76.0801 118.16C74.8524 118.522 73.8035 119.623 72.8907 121.389C72.0521 123.112 71.8354 124.624 72.256 125.868C72.6223 126.845 73.3172 127.534 74.368 128.067L74.6453 128.204C75.0828 128.447 75.6103 128.588 76.0949 128.655C76.6381 128.738 77.1541 128.688 77.6429 128.505C78.945 128.1 79.9781 127.057 80.8753 125.35C81.7295 123.569 81.9463 122.057 81.4513 120.856C81.0694 119.937 80.3902 119.19 79.3394 118.657L79.062 118.52Z" fill="white"/>
<path d="M90.8019 108.473C90.3655 107.288 89.6947 106.041 88.7152 104.773C87.5054 103.193 85.6236 101.306 83.16 99.0129L93.2183 88.2018L102.073 96.4167L103.752 94.6051L108.188 98.6832L105.444 101.654L103.531 99.8855L95.0617 108.986L96.9749 110.755L94.2313 113.727L89.7959 109.649L90.8019 108.473ZM99.0911 99.5753L92.7583 93.6695L88.4258 98.3508C89.8313 99.6697 91.0611 100.942 91.9234 102.178C92.8443 103.43 93.445 104.47 93.7841 105.315L99.0911 99.5753Z" fill="white"/>
<path d="M124.135 85.1157L120.988 79.7492L113.583 84.1728L116.731 89.5392L113.058 91.7589L105.085 78.3777L108.758 76.1581L111.707 81.0944L119.111 76.6708L116.162 71.7345L119.835 69.5148L127.765 82.8217L124.135 85.1157Z" fill="white"/>
<path d="M150.095 75.6756L148.12 73.199L140.019 75.3L139.57 78.3834L135.386 79.4611L138.111 62.7274L143.655 61.2605L154.517 74.4106L150.095 75.6756ZM145.942 70.5424L141.602 65.1706L140.531 71.9821L145.942 70.5424Z" fill="white"/>
<path d="M189.403 63.7816L182.826 62.7731C182.117 67.2946 181.375 70.2995 180.689 71.6862C180.278 72.5183 179.738 73.1274 179.143 73.4707C178.326 73.9426 177.219 74.0859 175.824 73.9006L174.312 73.6838L174.902 70.0728L175.02 70.1043C176.047 70.254 176.759 69.9422 177.213 69.1844C177.425 68.8642 177.609 68.411 177.766 67.8249C177.986 67.0043 178.194 65.9922 178.391 64.7886C178.718 62.8659 179.06 60.8846 179.376 58.7704L194.202 61.1099L191.796 76.4212L187.583 75.7322L189.403 63.7816Z" fill="white"/>
<path d="M227.614 83.8828C227.203 84.7149 226.631 85.4412 225.958 86.0775C225.285 86.7138 224.468 87.1858 223.607 87.5835C222.555 87.9926 221.39 88.1202 220.112 87.9662C218.834 87.8123 217.443 87.3767 216.014 86.6167L215.182 86.2053C212.643 84.8968 211.007 83.2649 210.216 81.294C209.58 79.6789 209.579 78.0451 210.167 76.3182L208.007 75.2368L205.147 80.7524L201.338 78.7896L208.414 65.0434L212.222 67.0062L209.59 72.143L211.793 73.2987C212.92 71.9046 214.273 71.0737 215.869 70.7473C217.862 70.3393 220.062 70.8031 222.5 72.0216L223.332 72.433C224.82 73.2088 225.984 74.0231 226.851 75.0092C227.733 75.9366 228.275 76.9613 228.567 77.9818C228.816 78.928 228.889 79.8271 228.755 80.7963C228.637 81.7069 228.343 82.5704 227.931 83.4024L227.614 83.8828ZM223.872 81.4354C224.405 80.3846 224.539 79.4154 224.29 78.4692C223.987 77.2571 222.96 76.1654 221.296 75.3426C219.648 74.4612 218.194 74.2601 217.009 74.6964C216.106 75.0198 215.358 75.699 214.826 76.7498L214.688 77.0271C214.156 78.0779 214.022 79.0471 214.271 79.9933C214.558 81.264 215.585 82.3557 217.249 83.1786C218.897 84.06 220.367 84.2025 221.61 83.7818C222.514 83.4585 223.277 82.7206 223.81 81.6698L223.872 81.4354Z" fill="white"/>
<path d="M242.168 85.835L253.368 97.254L250.914 99.6119L242.724 91.261L241.288 92.6351L245.816 97.3036C247.394 98.9198 248.252 100.406 248.316 101.805C248.37 103.013 247.88 104.138 246.772 105.224L246.608 105.368C245.501 106.453 244.359 106.964 243.124 106.884C241.756 106.832 240.224 105.982 238.647 104.366L231.109 96.6293L242.168 85.835ZM240.913 101.769C241.405 102.278 241.886 102.595 242.37 102.662C242.855 102.729 243.211 102.573 243.614 102.242L243.704 102.14C244.048 101.793 244.142 101.441 244.135 100.999C244.069 100.542 243.753 100.08 243.261 99.5715L238.92 95.1416L236.615 97.4137L240.913 101.769Z" fill="white"/>
<path d="M266.792 117.247C267.576 118.776 268.083 120.168 268.296 121.482C268.451 122.78 268.387 123.956 268.046 124.995C267.736 125.918 267.266 126.734 266.636 127.445C266.005 128.155 265.289 128.717 264.488 129.131L263.909 129.415C263.107 129.829 262.278 130.109 261.289 130.284C260.374 130.415 259.448 130.356 258.51 130.104C257.455 129.822 256.42 129.23 255.389 128.389C254.417 127.563 253.48 126.37 252.696 124.84L252.283 124.039C251.242 122.063 250.728 120.23 250.757 118.479C250.783 116.978 251.203 115.645 252.001 114.54C252.71 113.536 253.606 112.771 254.705 112.186L255.284 111.902C256.383 111.317 257.536 110.998 258.728 111.003C260.128 110.938 261.402 111.342 262.683 112.188C264.124 113.14 265.365 114.603 266.406 116.578L266.792 117.247ZM262.214 125.192C263.238 124.65 263.943 123.896 264.253 122.974C264.641 121.759 264.416 120.254 263.504 118.502C262.575 116.808 261.474 115.759 260.244 115.429C259.247 115.162 258.274 115.279 257.233 115.879L256.952 115.992C256.506 116.25 256.119 116.523 255.759 116.929C255.398 117.335 255.156 117.772 254.956 118.284C254.493 119.542 254.718 121.047 255.646 122.741C256.559 124.493 257.675 125.483 258.965 125.829C259.961 126.096 260.95 125.921 261.975 125.379L262.214 125.192Z" fill="white"/>
<path d="M275.489 138.486L277.805 149.535C278.229 151.47 278.129 153.014 277.522 154.107C277.052 154.924 276.336 155.486 275.331 155.719L275.124 155.789C274.252 155.995 273.49 155.791 272.748 155.278C272.166 154.871 271.764 154.261 271.554 153.639C271.596 154.655 271.419 155.55 270.98 156.249C270.436 157.109 269.646 157.713 268.524 157.915L268.316 157.985C267.785 158.094 267.21 158.129 266.667 158.046C266.124 157.963 265.612 157.763 265.147 157.388C263.999 156.515 263.141 155.028 262.737 152.784L260.436 141.677L275.489 138.486ZM267.469 144.503L264.47 145.145L265.846 151.733C265.982 152.397 266.223 152.902 266.661 153.145C266.981 153.356 267.349 153.392 267.806 153.326L267.88 153.283C268.338 153.217 268.592 152.971 268.788 152.709C269.015 152.33 269.023 151.83 268.903 151.107L267.469 144.503ZM273.185 143.334L270.467 143.862L271.746 150.11C271.948 151.232 272.53 151.639 273.386 151.491L273.444 151.507C273.843 151.426 274.14 151.254 274.352 150.934C274.563 150.613 274.556 150.172 274.463 149.581L273.185 143.334Z" fill="white"/>
<path d="M274.393 173.057L273.905 179.334C273.734 181.613 273.119 183.207 272.101 184.19C271.189 185.014 269.962 185.376 268.359 185.261L268.109 185.256C266.507 185.141 265.339 184.577 264.531 183.607C263.637 182.488 263.268 180.818 263.423 178.598L264.19 167.999L279.655 169.127L279.333 173.376L274.393 173.057ZM266.913 178.466C266.842 179.2 266.951 179.732 267.283 180.135C267.556 180.522 267.993 180.765 268.552 180.789L268.67 180.821C269.228 180.845 269.643 180.705 269.987 180.357C270.332 180.01 270.532 179.498 270.544 178.748L271.013 172.78L267.382 172.498L266.913 178.466Z" fill="white"/>
<path d="M72.5382 154.589C70.8971 154.149 69.2005 154.386 67.8471 155.217C67.0161 153.863 65.7393 152.767 64.0982 152.328C60.7573 151.432 57.3974 153.422 56.5179 156.704C55.9368 158.873 55.6718 161.503 58.3906 166.126L62.8958 173.929C62.8958 173.929 67.0575 171.527 70.699 169.424C75.3066 166.764 76.4509 164.369 77.0319 162.201C77.8528 158.903 75.8791 155.484 72.5382 154.589Z" fill="white"/>
<path d="M251.723 210.768L254.888 211.616L257.37 202.356L266.63 204.837C271.026 206.015 272.988 209.242 272.03 212.817C271.072 216.392 267.76 218.206 263.364 217.028L258.206 215.646L257.688 217.58L265.6 219.7L264.799 222.69L256.887 220.569L256.054 223.676L251.952 222.576L252.784 219.47L249.619 218.622L250.42 215.633L253.585 216.481L254.103 214.547L250.938 213.699L251.723 210.768ZM263.621 213.956C265.731 214.522 267.288 213.871 267.775 212.054C268.262 210.237 267.239 208.895 265.129 208.329L260.499 207.089L258.991 212.715L263.621 213.956Z" fill="white"/>
<path d="M140.526 144.914C139.647 144.679 138.81 144.517 137.915 144.341L158.659 124.834L145.999 121.441L113.919 151.605C110.225 155.076 107.441 159.607 106.027 164.882C101.991 179.945 110.916 195.403 125.92 199.423C140.925 203.443 156.441 194.535 160.477 179.471C164.513 164.408 155.589 148.95 140.526 144.914ZM128.826 188.58C119.975 186.208 114.745 176.892 117.163 167.866C118.012 164.7 119.692 161.947 121.891 159.835C125.961 155.9 131.834 154.144 137.636 155.699C146.486 158.07 151.717 167.387 149.298 176.413C146.88 185.439 137.676 190.951 128.826 188.58Z" fill="white"/>
<path d="M212.216 137.363C197.153 133.326 181.754 142.267 177.718 157.33L171.043 182.24C167.007 197.303 175.932 212.761 190.936 216.781C205.999 220.817 221.457 211.893 225.493 196.83L232.168 171.92C236.204 156.857 227.279 141.399 212.216 137.363ZM214.298 193.83C211.864 202.915 202.751 208.325 193.842 205.938C184.991 203.567 179.761 194.25 182.179 185.224L188.854 160.314C191.288 151.229 200.402 145.819 209.311 148.206C218.161 150.577 223.392 159.894 220.973 168.92L214.298 193.83Z" fill="white"/>
</svg>
