<svg width="124" height="125" viewBox="0 0 124 125" fill="none" xmlns="http://www.w3.org/2000/svg">
<path d="M24.6505 83.0292C25.0636 83.7962 25.2996 84.5042 25.3881 85.1533C25.4766 85.8023 25.4176 86.3923 25.2701 86.8938C25.1226 87.3658 24.8865 87.7494 24.562 88.1034C24.2375 88.4574 23.8835 88.7229 23.4705 88.9589L23.205 89.1064C22.792 89.3129 22.3789 89.4604 21.9069 89.5194C21.4349 89.5784 20.9629 89.5489 20.4909 89.4309C19.9598 89.2834 19.4288 88.9884 18.9273 88.5754C18.4258 88.1329 17.9833 87.5429 17.5702 86.7758L17.3637 86.3628C16.8327 85.3598 16.5967 84.4452 16.5967 83.5602C16.6262 82.7932 16.8327 82.1441 17.2457 81.5836C17.5997 81.0821 18.0423 80.6986 18.6028 80.4036L18.8683 80.256C19.4288 79.961 19.9893 79.8135 20.6088 79.784C21.3169 79.7545 21.9659 79.961 22.5854 80.374C23.2935 80.8461 23.913 81.5836 24.444 82.5866L24.6505 83.0292ZM22.3199 87.0118C22.851 86.7463 23.1755 86.3628 23.3525 85.8908C23.559 85.2713 23.441 84.5337 22.9689 83.6487C22.4969 82.7932 21.9659 82.2621 21.3464 82.0851C20.8449 81.9376 20.3433 82.0261 19.8418 82.2916L19.7238 82.3506C19.4878 82.4686 19.2813 82.6161 19.1043 82.8227C18.9273 82.9997 18.7798 83.2357 18.6913 83.5012C18.4553 84.1502 18.5733 84.8877 19.0453 85.7433C19.5173 86.6283 20.0778 87.1298 20.7269 87.3068C21.1989 87.4248 21.7299 87.3659 22.2314 87.1003L22.3199 87.0118Z" fill="#51E2F2"/>
<path d="M29.2234 101.202L29.3119 94.3579L25.8602 98.0161L24.3262 96.5705L29.6659 90.9062L31.2885 92.4403L31.1704 99.1961L34.6221 95.538L36.1562 96.9835L30.8164 102.648L29.2234 101.202Z" fill="#51E2F2"/>
<path d="M40.3751 99.7852L46.7769 102.912L46.0393 104.446L41.5551 102.263L40.9946 103.414L45.3608 105.538L44.5938 107.131L40.2276 105.007L39.6375 106.216L44.1807 108.429L43.4432 109.963L36.9824 106.806L40.3751 99.7852Z" fill="#51E2F2"/>
<path d="M60.1997 110.879L60.1702 113.357L58.0166 113.327L58.1346 105.539L63.4153 105.628C64.5659 105.657 65.3919 105.893 65.923 106.395C66.3655 106.837 66.6015 107.457 66.572 108.253V108.371C66.572 109.168 66.3065 109.787 65.8344 110.2C65.3034 110.672 64.4479 110.908 63.2973 110.908L60.1997 110.879ZM60.2292 109.138L63.1793 109.197C63.9464 109.197 64.3299 108.932 64.3299 108.312V108.283C64.3299 108.017 64.2414 107.781 64.0644 107.634C63.8874 107.486 63.5923 107.398 63.2088 107.398L60.2587 107.339L60.2292 109.138Z" fill="#51E2F2"/>
<path d="M80.4077 106.896C80.7913 107.132 81.0567 107.516 81.2338 108.047L81.4698 108.814C81.5583 109.109 81.6468 109.286 81.7058 109.374C81.7648 109.463 81.7943 109.522 81.8533 109.61L81.8828 109.669L79.7587 110.348C79.7292 110.289 79.6997 110.23 79.6702 110.2C79.6407 110.141 79.5817 110.023 79.5227 109.846L79.3162 109.227C79.1687 108.725 78.9327 108.401 78.6672 108.253C78.4016 108.106 77.9886 108.106 77.4871 108.253L74.8025 109.109L75.599 111.617L73.5339 112.266L71.1738 104.861L76.1595 103.268C77.3986 102.884 78.3721 102.825 79.0212 103.12C79.4637 103.327 79.7587 103.71 79.9357 104.241L79.9652 104.33C80.1127 104.772 80.0832 105.215 79.9062 105.598C79.7292 106.011 79.4047 106.336 78.9622 106.572C79.5522 106.572 80.0242 106.66 80.4077 106.896ZM74.2715 107.427L77.1331 106.513C77.5166 106.395 77.7821 106.218 77.9001 106.011C78.0181 105.834 78.0181 105.628 77.9591 105.392V105.362C77.8706 105.126 77.7526 104.949 77.5756 104.89C77.3691 104.802 77.0446 104.802 76.6611 104.949L73.7994 105.864L74.2715 107.427Z" fill="#51E2F2"/>
<path d="M85.6005 98.668L89.7012 105.276L87.8721 106.397L83.7715 99.789L85.6005 98.668Z" fill="#51E2F2"/>
<path d="M98.4918 98.1654C97.7248 98.9619 96.9282 99.4635 96.1022 99.67C95.3942 99.8765 94.7156 99.847 94.0666 99.611C93.5061 99.4339 93.0046 99.1094 92.5915 98.6964L92.3556 98.4899C91.913 98.0474 91.5885 97.5754 91.382 97.0148C91.146 96.3658 91.1165 95.6873 91.264 94.9793C91.4705 94.1532 91.9425 93.3567 92.7096 92.5602L93.0341 92.2061C94.0666 91.1146 95.0992 90.5246 96.1022 90.4361C96.5447 90.4066 96.9282 90.4361 97.2823 90.5836C97.6363 90.7311 97.9608 90.9376 98.2558 91.2031H98.2853L96.7512 92.7962C96.6922 92.7667 96.6037 92.7077 96.4562 92.6487C96.3087 92.5897 96.1022 92.5602 95.8662 92.5897C95.6302 92.6192 95.3942 92.6782 95.0992 92.8257C94.8041 92.9732 94.4796 93.2092 94.1256 93.5927C93.5061 94.2417 93.2111 94.8612 93.2406 95.4513C93.2406 95.7168 93.3291 95.9528 93.4471 96.1888C93.5651 96.4248 93.7421 96.6313 93.9191 96.8378L94.0371 96.9263C94.2141 97.1033 94.4502 97.2509 94.6862 97.3689C94.9222 97.4869 95.1877 97.5459 95.4532 97.5459C96.1022 97.5754 96.7512 97.2804 97.3413 96.6313C97.9608 96.0118 98.2558 95.3923 98.2853 94.8023C98.2853 94.5957 98.2558 94.4482 98.1968 94.3007C98.1378 94.1532 98.0788 94.0647 98.0198 93.9762L99.5539 92.3831L99.5834 92.4126C99.8489 92.6782 100.055 92.9732 100.232 93.3567C100.38 93.7107 100.468 94.1237 100.439 94.5367C100.409 95.0088 100.262 95.5398 100.026 96.0708C99.7604 96.6018 99.3474 97.1624 98.8163 97.7229L98.4918 98.1654Z" fill="#51E2F2"/>
<path d="M98.7871 85.2434L102.003 78.8711L103.507 79.6381L101.265 84.0928L102.386 84.6533L104.569 80.3167L106.133 81.1132L103.95 85.4499L105.159 86.0694L107.431 81.5557L108.965 82.3227L105.72 88.7245L98.7871 85.2434Z" fill="#51E2F2"/>
<path d="M17.4514 39.222C17.8644 38.455 18.3069 37.8649 18.7789 37.4224C19.2509 36.9799 19.7819 36.6849 20.2835 36.5374C20.7555 36.4194 21.2275 36.3604 21.6995 36.4489C22.1716 36.5079 22.6141 36.6554 23.0271 36.8619L23.2926 37.0094C23.7056 37.2159 24.0596 37.5109 24.3842 37.8354C24.7087 38.1894 24.9447 38.6025 25.1217 39.045C25.2987 39.576 25.3577 40.166 25.2987 40.815C25.2102 41.4641 24.9742 42.1721 24.5906 42.9391L24.3842 43.3522C23.8531 44.3552 23.2336 45.0927 22.4961 45.5648C21.847 45.9778 21.198 46.1843 20.49 46.1548C19.9 46.1548 19.3099 46.0073 18.7494 45.7123L18.4839 45.5648C17.9234 45.2697 17.4809 44.8862 17.1269 44.3847C16.7138 43.8242 16.5073 43.1752 16.4778 42.4081C16.4483 41.5526 16.7138 40.6085 17.2449 39.6055L17.4514 39.222ZM22.0535 38.868C21.5225 38.6025 21.021 38.514 20.549 38.6615C19.9295 38.8385 19.3689 39.3695 18.9264 40.2545C18.4839 41.1101 18.3364 41.8771 18.5724 42.4966C18.7494 42.9686 19.0739 43.3522 19.605 43.6177L19.7229 43.6767C19.959 43.7947 20.195 43.8832 20.4605 43.9127C20.726 43.9422 20.9915 43.9422 21.257 43.8537C21.9061 43.6767 22.4666 43.1752 22.9091 42.3196C23.3811 41.4346 23.4696 40.697 23.2631 40.0775C23.0861 39.6055 22.7616 39.222 22.2305 38.9565L22.0535 38.868Z" fill="#51E2F2"/>
<path d="M35.5356 29.4544L28.7208 28.7758L32.0839 32.552L30.5204 33.9386L25.3281 28.1268L26.9802 26.6518L33.7065 27.3598L30.3729 23.6131L31.9364 22.2266L37.1286 28.0383L35.5356 29.4544Z" fill="#51E2F2"/>
<path d="M39.7539 17.511L46.3327 14.7969L46.9817 16.3604L42.35 18.278L42.822 19.4581L47.3062 17.5995L47.9848 19.2221L43.5006 21.0806L44.0021 22.3197L48.6928 20.4021L49.3418 21.9952L42.704 24.7388L39.7539 17.511Z" fill="#51E2F2"/>
<path d="M64.2104 12.3164L66.364 12.5524L65.7444 18.4822L70.4942 18.9837L70.3171 20.8128L63.4434 20.1047L64.2104 12.3164Z" fill="#51E2F2"/>
<path d="M83.5639 16.9769C84.3605 17.3309 84.98 17.7439 85.4225 18.216C85.8945 18.688 86.219 19.16 86.3666 19.691C86.5141 20.163 86.5731 20.6351 86.5436 21.0776C86.4845 21.5496 86.3666 21.9921 86.1895 22.4051L86.0715 22.7001C85.8945 23.1132 85.629 23.4967 85.3045 23.8212C84.98 24.1752 84.5965 24.4407 84.1245 24.6177C83.5934 24.8242 83.0034 24.9127 82.3544 24.8832C81.7054 24.8242 80.9678 24.6472 80.2008 24.2637L79.7878 24.0572C78.7552 23.5852 77.9882 22.9952 77.4867 22.2871C77.0442 21.6676 76.8081 21.0186 76.8081 20.3105C76.7786 19.7205 76.8967 19.1305 77.1622 18.5405L77.2802 18.2455C77.5457 17.6849 77.8997 17.2129 78.3717 16.8294C78.9027 16.3869 79.5518 16.1509 80.2893 16.0919C81.1448 16.0329 82.0889 16.2394 83.1214 16.7114L83.5639 16.9769ZM84.1245 21.5791C84.3605 21.0481 84.4195 20.5466 84.272 20.0745C84.0655 19.455 83.5049 18.9535 82.6199 18.5405C81.7349 18.1275 80.9973 18.039 80.3778 18.275C79.9058 18.452 79.5518 18.8355 79.3157 19.3665L79.2568 19.514C79.1387 19.75 79.0798 19.986 79.0503 20.2515C79.0208 20.5171 79.0502 20.7826 79.1387 21.0186C79.3453 21.6676 79.9058 22.1691 80.7613 22.5821C81.6463 22.9952 82.4134 23.0837 83.0329 22.8182C83.5049 22.6116 83.859 22.2576 84.095 21.7266L84.1245 21.5791Z" fill="#51E2F2"/>
<path d="M93.2698 33.5582L91.2637 31.5521L94.1843 23.4688L95.9839 25.2388L93.6238 31.2276L99.583 28.8085L101.235 30.4606L93.2698 33.5582Z" fill="#51E2F2"/>
<path d="M105.896 37.332L109.052 43.7043L107.548 44.4713L105.335 39.9871L104.214 40.5477L106.368 44.8844L104.804 45.6809L102.651 41.3442L101.441 41.9342L103.683 46.4774L102.149 47.2445L98.9629 40.8132L105.896 37.332Z" fill="#51E2F2"/>
<path d="M17.5702 58.957C16.8032 58.957 16.0952 59.2815 15.5936 59.7831C15.0921 59.2815 14.3841 58.957 13.6171 58.957C12.083 58.957 10.8145 60.1961 10.8145 61.7597C10.8145 62.7627 11.021 63.9427 12.7025 65.6243L15.5641 68.4859C15.5641 68.4859 17.0687 66.9814 18.4258 65.6243C20.1369 63.9132 20.3138 62.7627 20.3138 61.7597C20.3433 60.1961 19.1043 58.957 17.5702 58.957Z" fill="#51E2F2"/>
<path d="M104.127 62.4986H105.602V58.1914H109.939C111.974 58.1914 113.213 59.3715 113.213 61.0235C113.213 62.6756 111.974 63.8851 109.939 63.8851H107.549V64.7702H111.237V66.1567H107.549V67.6023H105.631V66.1567H104.156V64.7702H105.631V63.8851H104.156V62.4986H104.127ZM109.673 62.4986C110.647 62.4986 111.266 62.0266 111.266 61.2005C111.266 60.345 110.647 59.9025 109.673 59.9025H107.52V62.4986H109.673Z" fill="#51E2F2"/>
<path d="M47.0709 55.741C46.6579 55.741 46.2744 55.7705 45.8908 55.8L52.6466 44.9141H46.7464L36.3324 61.7298C35.1229 63.6769 34.4443 65.9485 34.4443 68.3971C34.4443 75.3889 40.1086 81.0826 47.1299 81.0826C54.1512 81.0826 59.8154 75.4184 59.8154 68.3971C59.8154 61.3758 54.0627 55.741 47.0709 55.741ZM47.0709 76.0674C42.9407 76.0674 39.6071 72.6452 39.6071 68.4266C39.6071 66.9515 40.0201 65.5649 40.7281 64.3849C42.0557 62.2018 44.3863 60.7562 47.0709 60.7562C51.2011 60.7562 54.5347 64.1784 54.5347 68.3971C54.5347 72.6452 51.2011 76.0674 47.0709 76.0674Z" fill="#51E2F2"/>
<path d="M77.3398 44.1172C70.348 44.1172 64.6543 49.7814 64.6543 56.8027V68.4262C64.6543 75.418 70.3185 81.1118 77.3398 81.1118C84.3316 81.1118 90.0254 75.4475 90.0254 68.4262V56.8027C89.9959 49.8109 84.3316 44.1172 77.3398 44.1172ZM84.8037 68.4262C84.8037 72.6449 81.47 76.0671 77.3398 76.0671C73.2097 76.0671 69.876 72.6449 69.876 68.4262V56.8027C69.876 52.584 73.2097 49.1619 77.3398 49.1619C81.47 49.1619 84.8037 52.584 84.8037 56.8027V68.4262Z" fill="#51E2F2"/>
<path d="M62.2053 3.3492C94.9517 3.3492 121.473 29.8708 121.473 62.6172C121.473 95.3636 94.9517 121.885 62.2053 121.885C29.4589 121.885 2.93729 95.3636 2.93729 62.6172C2.93729 29.8708 29.4589 3.3492 62.2053 3.3492ZM62.2053 0.871094C53.8564 0.871094 45.7731 2.49366 38.1618 5.7388C30.816 8.83643 24.2077 13.2911 18.5434 18.9849C12.8792 24.6491 8.42453 31.2574 5.2974 38.6032C2.08176 46.2145 0.429688 54.2979 0.429688 62.6467C0.429688 70.9956 2.05226 79.0789 5.2974 86.6903C8.39503 94.0361 12.8497 100.644 18.5434 106.309C24.2077 111.973 30.816 116.428 38.1618 119.555C45.7731 122.77 53.8564 124.422 62.2053 124.422C70.5542 124.422 78.6375 122.8 86.2488 119.555C93.5946 116.457 100.203 112.002 105.867 106.309C111.531 100.644 115.986 94.0361 119.113 86.6903C122.329 79.0789 123.981 70.9956 123.981 62.6467C123.981 54.2979 122.358 46.2145 119.113 38.6032C116.016 31.2574 111.561 24.6491 105.867 18.9849C100.203 13.3206 93.5946 8.86593 86.2488 5.7388C78.608 2.49366 70.5247 0.871094 62.2053 0.871094Z" fill="#51E2F2"/>
</svg>
