<svg width="124" height="124" viewBox="0 0 124 124" fill="none" xmlns="http://www.w3.org/2000/svg">
<path d="M24.359 82.9757C24.7279 83.6325 24.9784 84.3491 25.0991 85.0927C25.192 85.6786 25.1475 86.2782 24.9693 86.8441C24.8189 87.295 24.5747 87.709 24.2529 88.0588C23.94 88.4009 23.5711 88.6871 23.1619 88.9051L22.8848 89.0525C22.4767 89.2677 22.035 89.4123 21.5786 89.48C21.1071 89.5521 20.6256 89.523 20.1663 89.3945C19.5874 89.2296 19.0545 88.9329 18.6095 88.5277C18.0571 88.0192 17.6016 87.4149 17.265 86.7438L17.0498 86.3369C16.5607 85.4869 16.2987 84.5253 16.2891 83.5447C16.2885 82.8348 16.5136 82.143 16.9318 81.5693C17.2817 81.0743 17.7447 80.67 18.2822 80.3899L18.5594 80.2424C19.0925 79.9534 19.6868 79.7957 20.2931 79.7825C20.9985 79.7632 21.6917 79.9698 22.2715 80.3722C23.0697 80.9389 23.7126 81.6973 24.1408 82.5776L24.359 82.9757ZM22.0386 86.965C22.5136 86.7381 22.8816 86.3351 23.0646 85.8416C23.2769 85.2322 23.1491 84.4873 22.6813 83.6067C22.2135 82.726 21.669 82.2061 21.0479 82.0469C20.5368 81.9149 19.9942 81.9902 19.5383 82.2563L19.4085 82.3241C19.1791 82.446 18.971 82.6043 18.7923 82.7929C18.6093 82.9847 18.4722 83.2156 18.3913 83.4681C18.1692 84.1069 18.2842 84.8509 18.7363 85.7001C19.1884 86.5492 19.7437 87.0672 20.4022 87.2539C20.9137 87.3795 21.454 87.3013 21.9088 87.0357L22.0386 86.965Z" fill="white"/>
<path d="M28.9228 101.147L29.0054 94.2943L25.5468 97.9593L24.0195 96.5175L29.3592 90.8594L30.972 92.3808L30.8423 99.1446L34.2802 95.5032L35.8016 96.9391L30.4619 102.597L28.9228 101.147Z" fill="white"/>
<path d="M40.0744 99.7266L46.4756 102.843L45.7326 104.367L41.2391 102.18L40.6848 103.318L45.0367 105.438L44.2672 107.018L39.9152 104.898L39.3255 106.11L43.875 108.324L43.1232 109.866L36.666 106.72L40.0744 99.7266Z" fill="white"/>
<path d="M59.8968 110.801L59.8555 113.29L57.7031 113.255L57.8299 105.477L63.0988 105.562C64.2487 105.582 65.088 105.836 65.6168 106.326C65.8536 106.573 66.035 106.868 66.1489 107.191C66.2628 107.514 66.3065 107.857 66.2773 108.198V108.313C66.2948 108.654 66.2386 108.995 66.1124 109.313C65.9862 109.63 65.793 109.917 65.546 110.153C65.0016 110.638 64.1573 110.872 63.0133 110.855L59.8968 110.801ZM59.9263 109.065L62.8748 109.112C63.6335 109.124 64.0178 108.829 64.0276 108.227V108.186C64.036 108.063 64.0159 107.94 63.9688 107.826C63.9218 107.712 63.8491 107.61 63.7563 107.529C63.5099 107.349 63.2087 107.261 62.9042 107.278L59.9558 107.231L59.9263 109.065Z" fill="white"/>
<path d="M80.0704 106.828C80.4771 107.091 80.7706 107.497 80.893 107.966L81.1377 108.733C81.1917 108.929 81.2668 109.119 81.3618 109.299C81.4066 109.379 81.46 109.454 81.5211 109.523L81.5358 109.573L79.4129 110.248C79.3795 110.201 79.349 110.152 79.3215 110.101C79.2598 109.991 79.2113 109.874 79.177 109.753L78.9824 109.145C78.8962 108.752 78.6631 108.406 78.3308 108.178C78.1442 108.099 77.9437 108.059 77.7411 108.059C77.5385 108.059 77.338 108.099 77.1514 108.178L74.4801 109.027L75.2821 111.548L73.2182 112.203L70.8594 104.79L75.8512 103.201C77.0993 102.808 78.0487 102.758 78.6993 103.051C78.9244 103.163 79.1228 103.322 79.2814 103.518C79.4401 103.713 79.5552 103.94 79.6193 104.183L79.6517 104.283C79.7978 104.7 79.7767 105.158 79.5927 105.56C79.3892 105.979 79.0592 106.323 78.6492 106.545C79.1411 106.485 79.6392 106.584 80.0704 106.828ZM73.9494 107.356L76.8094 106.445C77.1191 106.373 77.3925 106.192 77.5789 105.934C77.6321 105.841 77.6636 105.737 77.6713 105.63C77.6789 105.523 77.6625 105.415 77.6232 105.315V105.295C77.5971 105.191 77.5481 105.094 77.4797 105.011C77.4114 104.928 77.3254 104.862 77.2281 104.817C76.926 104.726 76.6015 104.744 76.3111 104.867L73.4511 105.778L73.9494 107.356Z" fill="white"/>
<path d="M85.2714 98.5938L89.3698 105.204L87.5388 106.339L83.4404 99.7289L85.2714 98.5938Z" fill="white"/>
<path d="M98.1561 98.1103C97.5177 98.823 96.6956 99.3463 95.7796 99.6229C95.1106 99.8183 94.3972 99.7997 93.7393 99.5698C93.1858 99.3789 92.6821 99.0666 92.265 98.6558L92.038 98.4376C91.6067 98.0264 91.2749 97.5222 91.068 96.9634C90.8258 96.3161 90.7877 95.6102 90.9589 94.9407C91.2249 94.0255 91.726 93.196 92.4124 92.5348L92.7456 92.1898C93.7913 91.1067 94.8145 90.517 95.815 90.4207C96.2145 90.3782 96.6183 90.4297 96.9944 90.5711C97.3573 90.7094 97.6884 90.9201 97.9674 91.1903H97.9821L96.4401 92.7854C96.3443 92.7331 96.2459 92.6859 96.1452 92.6439C95.9573 92.5728 95.7547 92.5495 95.5555 92.576C95.2922 92.6071 95.0366 92.685 94.8007 92.806C94.4321 93.0037 94.1009 93.2641 93.8218 93.5756C93.2066 94.2124 92.9117 94.8365 92.9373 95.4478C92.9466 95.71 93.0141 95.9668 93.1348 96.1997C93.2571 96.4391 93.4186 96.6563 93.6125 96.8425L93.7186 96.9457C93.9071 97.1267 94.1243 97.2752 94.3614 97.385C94.6051 97.4995 94.8705 97.5609 95.1398 97.5649C95.7963 97.5884 96.4273 97.2867 97.0327 96.6597C97.6381 96.0326 97.9477 95.4262 97.9615 94.8405C97.9622 94.6663 97.9312 94.4935 97.8701 94.3304C97.8279 94.2136 97.7661 94.1049 97.6873 94.009L99.2264 92.4139L99.25 92.4345C99.5244 92.7007 99.7438 93.0183 99.8957 93.3692C100.055 93.741 100.128 94.1444 100.108 94.5486C100.073 95.0824 99.9287 95.6034 99.6834 96.0788C99.3697 96.6877 98.9629 97.2438 98.4775 97.727L98.1561 98.1103Z" fill="white"/>
<path d="M98.4414 85.1899L101.652 78.8359L103.165 79.5996L100.897 84.0606L102.027 84.6326L104.212 80.3131L105.78 81.1063L103.595 85.4258L104.798 86.0332L107.08 81.5161L108.611 82.2886L105.367 88.6986L98.4414 85.1899Z" fill="white"/>
<path d="M17.1615 39.1736C17.4955 38.4988 17.9456 37.888 18.4913 37.3692C18.9221 36.9607 19.4419 36.6579 20.0098 36.4846C20.4667 36.3543 20.946 36.3221 21.4162 36.3903C21.8743 36.4552 22.318 36.5978 22.7282 36.8119L23.0054 36.9564C23.4137 37.1719 23.7826 37.455 24.0963 37.7937C24.4225 38.1424 24.6708 38.5565 24.8246 39.0085C25.014 39.5779 25.0695 40.1833 24.9868 40.7776C24.8793 41.5207 24.6375 42.238 24.2732 42.8946L24.061 43.3015C23.6355 44.1854 22.9898 44.9449 22.1857 45.5069C21.6006 45.9097 20.9026 46.1162 20.1926 46.0966C19.5862 46.0877 18.9908 45.934 18.4559 45.6485L18.1787 45.504C17.6391 45.2246 17.1741 44.8202 16.8224 44.3246C16.4063 43.7546 16.1832 43.0666 16.1856 42.3609C16.2024 41.3828 16.465 40.4246 16.9492 39.5746L17.1615 39.1736ZM21.7641 38.8375C21.3084 38.5739 20.7682 38.4978 20.2574 38.6252C19.6343 38.7943 19.0908 39.3201 18.6269 40.2026C18.163 41.0852 18.0411 41.8282 18.2613 42.4317C18.4408 42.9288 18.8097 43.3347 19.2874 43.5609L19.4171 43.6288C19.6471 43.7486 19.8951 43.8303 20.1513 43.8705C20.4122 43.913 20.6793 43.8959 20.9326 43.8204C21.5852 43.6435 22.1346 43.1285 22.5808 42.2754C23.027 41.4223 23.141 40.6714 22.9228 40.0228C22.7368 39.5305 22.3668 39.1299 21.8909 38.9053L21.7641 38.8375Z" fill="white"/>
<path d="M35.2242 29.418L28.4044 28.7428L31.7568 32.5051L30.1883 33.9027L25.0137 28.0942L26.6678 26.6199L33.3962 27.3335L30.0644 23.5948L31.6242 22.2031L36.7987 28.0116L35.2242 29.418Z" fill="white"/>
<path d="M39.4492 17.487L46.0332 14.7773L46.6789 16.343L42.0586 18.2447L42.5392 19.4241L47.015 17.5813L47.6843 19.2059L43.2085 21.0487L43.7215 22.2959L48.4008 20.3676L49.0524 21.9539L42.4095 24.6901L39.4492 17.487Z" fill="white"/>
<path d="M63.8977 12.3086L66.0412 12.5297L65.4308 18.4591L70.1632 18.9485L69.9744 20.7678L63.0986 20.0601L63.8977 12.3086Z" fill="white"/>
<path d="M83.2393 16.9646C83.931 17.2633 84.5648 17.6815 85.1116 18.2C85.5409 18.6105 85.8689 19.1152 86.0698 19.6742C86.224 20.124 86.2813 20.6013 86.2379 21.0747C86.1965 21.5358 86.0769 21.9865 85.8841 22.4074L85.7514 22.7023C85.5567 23.1211 85.2925 23.5039 84.97 23.8345C84.6373 24.1777 84.2353 24.4461 83.7907 24.6217C83.2286 24.8421 82.6229 24.9289 82.0216 24.8753C81.2745 24.8054 80.5462 24.6006 79.8721 24.2709L79.4535 24.0792C78.5484 23.6969 77.7573 23.0876 77.1566 22.3101C76.7266 21.7455 76.4871 21.059 76.4726 20.3494C76.449 19.7394 76.5724 19.1327 76.8323 18.5803L76.962 18.2855C77.2108 17.733 77.5879 17.2478 78.0618 16.8702C78.61 16.4264 79.2855 16.1691 79.9901 16.136C80.9679 16.1035 81.9383 16.3174 82.8118 16.7582L83.2393 16.9646ZM83.8113 21.5465C84.0505 21.0777 84.098 20.5342 83.944 20.031C83.7474 19.4177 83.1941 18.9017 82.284 18.483C81.3739 18.0644 80.626 17.9808 80.0402 18.2324C79.5538 18.4375 79.1681 18.8264 78.967 19.3145L78.9051 19.4472C78.7964 19.6831 78.7267 19.935 78.6986 20.1931C78.6705 20.4562 78.7018 20.7222 78.7901 20.9715C79.0004 21.6143 79.5429 22.1362 80.4176 22.5372C81.2923 22.9382 82.0481 23.0139 82.685 22.7642C83.1675 22.5535 83.5492 22.1633 83.7494 21.6762L83.8113 21.5465Z" fill="white"/>
<path d="M92.9376 33.525L90.9238 31.5319L93.8281 23.4648L95.6119 25.2339L93.2531 31.2075L99.2061 28.8016L100.872 30.4468L92.9376 33.525Z" fill="white"/>
<path d="M105.551 37.2852L108.718 43.6627L107.199 44.4175L104.976 39.9417L103.844 40.5049L105.996 44.8391L104.422 45.6205L102.27 41.2862L101.061 41.8759L103.313 46.4077L101.777 47.1714L98.5811 40.7378L105.551 37.2852Z" fill="white"/>
<path d="M17.2704 58.9023C16.747 59.4248 16.0376 59.7183 15.2979 59.7183C14.5583 59.7183 13.8489 59.4248 13.3254 58.9023C12.9587 58.9023 12.5956 58.9746 12.2569 59.1149C11.9181 59.2552 11.6103 59.4609 11.351 59.7202C11.0917 59.9794 10.8861 60.2872 10.7457 60.626C10.6054 60.9648 10.5332 61.3279 10.5332 61.6945C10.5332 62.7029 10.7307 63.8617 12.432 65.5659L15.2979 68.4318L18.1638 65.5659C19.8681 63.8617 20.0626 62.7029 20.0626 61.6945C20.0626 61.3279 19.9904 60.9648 19.8501 60.626C19.7098 60.2872 19.5041 59.9794 19.2448 59.7202C18.9855 59.4609 18.6777 59.2552 18.339 59.1149C18.0002 58.9746 17.6371 58.9023 17.2704 58.9023Z" fill="white"/>
<path d="M103.79 62.4346H105.264V58.1328H109.584C111.627 58.1328 112.863 59.3122 112.863 60.9692C112.863 62.6263 111.627 63.8175 109.584 63.8175H107.184V64.702H110.872V66.0878H107.184V67.5384H105.261V66.0878H103.787V64.702H105.261V63.8175H103.787L103.79 62.4346ZM109.333 62.4346C110.315 62.4346 110.919 61.9629 110.919 61.1314C110.919 60.2999 110.315 59.8282 109.333 59.8282H107.19V62.4346H109.333Z" fill="white"/>
<path d="M46.761 55.6998C46.357 55.6998 45.9619 55.7263 45.5816 55.7617L52.3188 44.8789H46.4219L36.0079 61.6852C34.5288 64.0721 33.884 66.8824 34.1745 69.6754C34.4651 72.4683 35.6746 75.0858 37.6133 77.1171C39.5521 79.1484 42.1103 80.4786 44.8867 80.899C47.6631 81.3194 50.5004 80.8062 52.9536 79.44C55.4068 78.0737 57.3371 75.9317 58.4415 73.35C59.5459 70.7683 59.762 67.893 59.0559 65.1752C58.3497 62.4574 56.7613 60.051 54.5399 58.3334C52.3184 56.6158 49.5896 55.6843 46.7816 55.685L46.761 55.6998ZM46.761 76.0148C42.6331 76.0148 39.3013 72.5916 39.3013 68.3664C39.2983 66.9469 39.6848 65.5538 40.4188 64.3388C41.0742 63.2391 42.0029 62.3277 43.1148 61.6932C44.2266 61.0588 45.4838 60.7228 46.7639 60.7181C50.8918 60.7181 54.2235 64.1413 54.2235 68.3664C54.2235 72.5916 50.88 76.0148 46.761 76.0148Z" fill="white"/>
<path d="M77.0153 44.0938C73.6528 44.0938 70.428 45.4295 68.0503 47.8072C65.6727 50.1848 64.3369 53.4096 64.3369 56.7722V68.3773C64.469 71.6487 65.8614 74.7421 68.2227 77.0099C70.584 79.2778 73.731 80.5443 77.005 80.5443C80.279 80.5443 83.426 79.2778 85.7873 77.0099C88.1486 74.7421 89.5411 71.6487 89.6731 68.3773V56.7633C89.6708 53.4059 88.3368 50.1865 85.9639 47.8113C83.5909 45.4362 80.3728 44.0992 77.0153 44.0938ZM84.4779 68.3656C84.4779 72.5907 81.1373 76.0139 77.0153 76.0139C72.8934 76.0139 69.5557 72.5907 69.5557 68.3656V56.7633C69.5557 52.5382 72.8963 49.115 77.0153 49.115C81.1343 49.115 84.4779 52.5382 84.4779 56.7633V68.3656Z" fill="white"/>
<path d="M61.8812 3.32839C94.6092 3.32839 121.116 29.8499 121.116 62.5632C121.116 95.2764 94.5944 121.798 61.8812 121.798C29.1679 121.798 2.64639 95.2764 2.64639 62.5632C2.64639 29.8499 29.1679 3.32839 61.8812 3.32839ZM61.8812 0.851675C46.6296 0.87084 31.9287 6.55407 20.6303 16.7989C9.33182 27.0438 2.24124 41.1199 0.733952 56.2969C-0.773336 71.4738 3.41011 86.6697 12.4728 98.9367C21.5355 111.204 34.8313 119.667 49.7812 122.686C64.7311 125.705 80.2694 123.063 93.3818 115.273C106.494 107.484 116.246 95.1018 120.746 80.529C125.245 65.9563 124.172 50.2317 117.734 36.4056C111.296 22.5794 99.9516 11.6374 85.9023 5.70191C78.3031 2.48558 70.133 0.835903 61.8812 0.851675Z" fill="white"/>
</svg>
