<svg width="55" height="55" viewBox="0 0 55 55" fill="none" xmlns="http://www.w3.org/2000/svg">
<circle opacity="0.12" cx="27.5" cy="27.5" r="27" stroke="#343779"/>
<path d="M32.125 17H23.875C20.0786 17 17 20.0786 17 23.875V32.125C17 35.9214 20.0786 39 23.875 39H32.125C35.9214 39 39 35.9214 39 32.125V23.875C39 20.0786 35.9214 17 32.125 17ZM36.9375 32.125C36.9375 34.7787 34.7787 36.9375 32.125 36.9375H23.875C21.2213 36.9375 19.0625 34.7787 19.0625 32.125V23.875C19.0625 21.2213 21.2213 19.0625 23.875 19.0625H32.125C34.7787 19.0625 36.9375 21.2213 36.9375 23.875V32.125Z" fill="#343779"/>
<path d="M28 22.5C24.9626 22.5 22.5 24.9626 22.5 28C22.5 31.0374 24.9626 33.5 28 33.5C31.0374 33.5 33.5 31.0374 33.5 28C33.5 24.9626 31.0374 22.5 28 22.5ZM28 31.4375C26.1052 31.4375 24.5625 29.8948 24.5625 28C24.5625 26.1039 26.1052 24.5625 28 24.5625C29.8948 24.5625 31.4375 26.1039 31.4375 28C31.4375 29.8948 29.8948 31.4375 28 31.4375Z" fill="#343779"/>
<path d="M33.9131 22.8212C34.3178 22.8212 34.6459 22.4931 34.6459 22.0883C34.6459 21.6836 34.3178 21.3555 33.9131 21.3555C33.5083 21.3555 33.1802 21.6836 33.1802 22.0883C33.1802 22.4931 33.5083 22.8212 33.9131 22.8212Z" fill="#343779"/>
</svg>
