<svg width="55" height="55" viewBox="0 0 55 55" fill="none" xmlns="http://www.w3.org/2000/svg">
<circle opacity="0.12" cx="27.5" cy="27.5" r="27" stroke="#343779"/>
<path d="M38.8039 32.1962C38.7448 32.0972 38.379 31.3024 36.6189 29.6688C34.7762 27.9581 35.0238 28.2359 37.2432 25.2781C38.5949 23.4767 39.1353 22.3766 38.9662 21.9063C38.8053 21.458 37.8111 21.5763 37.8111 21.5763L34.5053 21.5955C34.5053 21.5955 34.2606 21.5625 34.0777 21.6712C33.9003 21.7784 33.7862 22.0259 33.7862 22.0259C33.7862 22.0259 33.2623 23.4203 32.5637 24.6056C31.091 27.1069 30.501 27.2389 30.2604 27.0836C29.7007 26.7219 29.841 25.6287 29.841 24.8531C29.841 22.4288 30.2082 21.4181 29.1246 21.1569C28.7643 21.0702 28.5003 21.0125 27.5803 21.0029C26.4005 20.9905 25.4008 21.007 24.8356 21.2834C24.4589 21.4677 24.1687 21.8788 24.3461 21.9022C24.5647 21.9311 25.0598 22.0356 25.3224 22.3931C25.6621 22.8538 25.6497 23.8906 25.6497 23.8906C25.6497 23.8906 25.845 26.7439 25.1945 27.0987C24.7476 27.3421 24.1357 26.8457 22.8225 24.5754C22.1501 23.4134 21.6413 22.1277 21.6413 22.1277C21.6413 22.1277 21.5436 21.8884 21.369 21.7605C21.1572 21.6052 20.8602 21.5557 20.8602 21.5557L17.7167 21.5749C17.7167 21.5749 17.2451 21.5887 17.0718 21.7936C16.9178 21.9764 17.0594 22.3532 17.0594 22.3532C17.0594 22.3532 19.5209 28.1108 22.3068 31.0136C24.8631 33.6744 27.7646 33.4998 27.7646 33.4998H29.0792C29.0792 33.4998 29.4766 33.4558 29.6787 33.2371C29.8658 33.0364 29.8589 32.6596 29.8589 32.6596C29.8589 32.6596 29.8327 30.8953 30.6523 30.6354C31.4595 30.3797 32.4963 32.3406 33.595 33.0955C34.4256 33.6662 35.0568 33.541 35.0568 33.541L37.9953 33.4998C37.9953 33.4998 39.5327 33.4049 38.8039 32.1962Z" fill="#343779"/>
</svg>
