<svg viewBox="0 0 123 123" xmlns="http://www.w3.org/2000/svg" xmlns:xlink="http://www.w3.org/1999/xlink"><style>:root>svg{display:none}:root>svg:target{display:block}</style><svg fill="none" viewBox="0 0 69 38" id="arr-left" xmlns="http://www.w3.org/2000/svg"><path d="M1.232 20.736a2.5 2.5 0 010-3.535l15.91-15.91a2.5 2.5 0 013.536 3.536L6.536 18.969 20.678 33.11a2.5 2.5 0 11-3.536 3.535l-15.91-15.91zm67.268.733H3v-5h65.5v5z" fill="#fff"/></svg><svg fill="none" viewBox="0 0 68 38" id="arr-right" xmlns="http://www.w3.org/2000/svg"><path d="M67.268 17.201a2.5 2.5 0 010 3.535l-15.91 15.91a2.5 2.5 0 01-3.536-3.535l14.142-14.142L47.823 4.827a2.5 2.5 0 113.536-3.536l15.91 15.91zM0 16.469h65.5v5H0v-5z" fill="#fff"/></svg><svg fill="none" viewBox="0 0 29 16" id="arrow-right" xmlns="http://www.w3.org/2000/svg"><path d="M28.707 8.707a1 1 0 000-1.414L22.343.929a1 1 0 10-1.414 1.414L26.586 8l-5.657 5.657a1 1 0 001.414 1.414l6.364-6.364zM0 9h28V7H0v2z" fill="#343779"/></svg><svg fill="none" viewBox="0 0 21 21" id="close-icon" xmlns="http://www.w3.org/2000/svg"><path d="M20 20L1 1m19 0L1 20" stroke="#343779" stroke-width="1.5"/></svg><svg fill="none" viewBox="0 0 21 21" id="form-req" xmlns="http://www.w3.org/2000/svg"><circle cx="10.5" cy="10.5" r="10.5" fill="#FF6767"/><path d="M10 13.488c0-.296.1-.544.3-.744.208-.2.456-.3.744-.3s.532.1.732.3c.2.2.3.448.3.744 0 .288-.1.536-.3.744-.2.2-.444.3-.732.3s-.536-.1-.744-.3c-.2-.208-.3-.456-.3-.744zm1.692-1.884h-1.308L10.012 6h2.064l-.384 5.604z" fill="#fff"/></svg><svg fill="none" viewBox="0 0 70 70" id="lips" xmlns="http://www.w3.org/2000/svg"><path d="M54.209 54.209c-21.217 0-38.418-17.2-38.418-38.418 21.22 0 38.418 17.2 38.418 38.418zM15.79 0H0v15.79C0 45.73 24.27 70 54.209 70H70V54.21C70 24.27 45.73 0 15.791 0z" fill="#343779"/></svg><svg fill="none" viewBox="0 0 11 14" id="map-marker" xmlns="http://www.w3.org/2000/svg"><path d="M5.501 0C.984 0-1.597 4.889 1.094 8.34L5.5 14 9.91 8.34C12.599 4.889 10.005 0 5.5 0z" fill="#fff"/></svg><svg fill="none" viewBox="0 0 122 123" id="quote-end" xmlns="http://www.w3.org/2000/svg"><path d="M61 16.203c25.213 0 45.727 20.514 45.727 45.728 0 25.213-20.514 45.727-45.727 45.727v-21.87c13.194 0 23.858-10.663 23.858-23.857 0-13.195-10.664-23.858-23.858-23.858v-21.87z" fill="#52E2F2"/><path d="M15.273 16.203C40.486 16.203 61 36.717 61 61.931c0 25.213-20.514 45.727-45.727 45.727v-21.87c13.194 0 23.858-10.663 23.858-23.857 0-13.195-10.664-23.858-23.858-23.858v-21.87z" fill="#FBB03B"/></svg><svg fill="none" viewBox="0 0 123 123" id="quote-start" xmlns="http://www.w3.org/2000/svg"><path d="M61.5 107.656c-25.213 0-45.727-20.514-45.727-45.727C15.773 36.715 36.287 16.2 61.5 16.2v21.87c-13.194 0-23.858 10.664-23.858 23.858S48.306 85.787 61.5 85.787v21.869z" fill="#FF8AAB"/><path d="M107.227 107.656c-25.213 0-45.727-20.514-45.727-45.727 0-25.214 20.514-45.728 45.727-45.728v21.87c-13.194 0-23.858 10.664-23.858 23.858s10.664 23.858 23.858 23.858v21.869z" fill="#52E2F2"/></svg><svg fill="none" viewBox="0 0 12 6" id="triangle-down" xmlns="http://www.w3.org/2000/svg"><path d="M1 1l5 4 5-4" stroke="#fff" stroke-width="1.5"/></svg></svg>