<svg width="96" height="96" viewBox="0 0 96 96" fill="none" xmlns="http://www.w3.org/2000/svg">
<path d="M48 0C21.5317 0 0 21.5317 0 48C0 57.0295 2.50892 65.7951 7.26831 73.4068C5.37231 80.0492 1.94769 92.6142 1.91077 92.7452C1.73354 93.3951 1.92369 94.0892 2.40923 94.5563C2.89477 95.0234 3.59631 95.1895 4.23508 94.9939L23.2615 89.1415C30.7145 93.6314 39.2492 96 48 96C74.4683 96 96 74.4683 96 48C96 21.5317 74.4683 0 48 0ZM48 92.3077C39.6572 92.3077 31.5305 89.976 24.4966 85.5674C24.1994 85.3809 23.8578 85.2868 23.5163 85.2868C23.3335 85.2868 23.1508 85.3145 22.9735 85.368L6.36 90.4818C7.58031 86.0271 9.77354 78.0591 11.0455 73.6265C11.1932 73.1132 11.1102 72.5594 10.8203 72.1108C6.15692 64.9348 3.69231 56.5975 3.69231 48C3.69231 23.5698 23.5698 3.69231 48 3.69231C72.4302 3.69231 92.3077 23.5698 92.3077 48C92.3077 72.4302 72.4302 92.3077 48 92.3077Z" fill="white"/>
<path d="M79.3569 59.3095C75.9489 57.4172 73.0468 55.5194 70.9292 54.1348C69.312 53.0788 68.1434 52.3163 67.2868 51.8862C64.8923 50.6917 63.0775 51.5354 62.3871 52.2332C62.3003 52.32 62.2228 52.4142 62.1563 52.5138C59.6695 56.2449 56.4222 59.8135 55.4714 60.0055C54.3729 59.8338 49.2314 56.9114 44.1212 52.656C38.904 48.3083 35.6215 44.1452 35.1397 41.3095C38.4868 37.8646 39.6923 35.6972 39.6923 33.2308C39.6923 30.6886 33.7625 20.0751 32.6898 19.0025C31.6135 17.928 29.1895 17.76 25.4843 18.4985C25.128 18.5705 24.7994 18.7458 24.5409 19.0025C24.0923 19.4511 13.5951 30.1532 18.5834 43.1243C24.0591 57.36 38.1138 73.9071 56.0326 76.5951C58.0689 76.8997 59.9778 77.0511 61.7649 77.0511C72.3065 77.0511 78.528 71.7471 80.28 61.2258C80.4111 60.456 80.04 59.688 79.3569 59.3095ZM56.5809 72.9434C37.632 70.1022 25.6966 51.3286 22.0302 41.7988C18.3932 32.3465 25.1003 23.9188 26.784 22.0135C28.1538 21.7809 29.5957 21.6831 30.1975 21.7772C31.4548 23.5255 35.808 31.7502 36 33.2308C36 34.2 35.6843 35.5495 31.9255 39.3102C31.5785 39.6554 31.3846 40.1243 31.3846 40.6154C31.3846 50.2818 51.7735 63.6923 55.3846 63.6923C58.5249 63.6923 62.6197 58.4142 64.9514 54.9748C65.0862 54.9803 65.3132 55.0265 65.6363 55.1889C66.3009 55.5231 67.4529 56.2745 68.9095 57.2271C70.8332 58.4843 73.3883 60.1532 76.4049 61.8831C75.0351 68.4738 71.2062 75.1403 56.5809 72.9434Z" fill="white"/>
</svg>
