<svg width="123" height="97" viewBox="0 0 123 97" fill="none" xmlns="http://www.w3.org/2000/svg">
<path d="M121.91 30.1275L93.1981 1.10376C92.4939 0.391961 91.558 0 90.5622 0C89.5664 0 88.6301 0.391961 87.9262 1.10376L78.6459 10.4846C77.9418 11.1964 77.5543 12.1425 77.5543 13.1491C77.5543 14.0518 77.8683 14.9042 78.4403 15.5842L74.6928 19.3724C70.6985 17.603 66.1783 17.4194 62.0755 18.8255C57.4557 17.4226 52.5129 17.5977 48.2431 19.3081L44.5595 15.5844C45.1315 14.9045 45.4455 14.0518 45.4455 13.1494C45.4455 12.1428 45.0577 11.1966 44.3538 10.4848L35.0738 1.104C34.3696 0.392204 33.4337 0.000243643 32.4379 0.000243643C31.442 0.000243643 30.5061 0.392204 29.8022 1.104L1.08992 30.1275C-0.363305 31.5965 -0.363305 33.9871 1.08992 35.4564L10.3702 44.8372C11.0744 45.549 12.0103 45.9407 13.0061 45.9407C13.811 45.9407 14.5744 45.6809 15.2104 45.2068L28.7775 58.9213C28.5483 59.1071 28.3261 59.306 28.1135 59.5207L24.4895 63.1841C21.3533 66.3542 21.3533 71.5121 24.4895 74.6823C26.0575 76.2674 28.1171 77.0598 30.1767 77.0598C30.4542 77.0598 30.7314 77.0443 31.0077 77.0154C30.7679 79.3676 31.5365 81.8061 33.3159 83.6046C34.884 85.1897 36.9436 85.9821 39.0032 85.9821C39.6389 85.9821 40.2745 85.9061 40.8958 85.7551C40.9186 87.8062 41.7008 89.8502 43.2456 91.4118C44.8137 92.9968 46.8732 93.7893 48.9328 93.7893C49.878 93.7893 50.8223 93.6202 51.7201 93.2866L52.9259 94.5052C54.561 96.158 56.8 97 58.9999 97C60.9187 97 62.8078 96.3591 64.2382 95.0567C65.8432 93.5957 66.7811 91.6107 66.8945 89.4461C69.6261 90.3393 72.7355 89.8583 74.8472 87.9361C76.4371 86.489 77.3724 84.527 77.5 82.3865C80.2541 83.3222 83.4116 82.8527 85.5478 80.9082C87.1399 79.4589 88.0757 77.4935 88.2011 75.3494C90.9518 76.2785 94.1021 75.8072 96.2343 73.8663C97.8946 72.3551 98.8411 70.2828 98.8993 68.0316C98.9567 65.8119 98.099 63.6387 96.5463 62.0689L93.8275 59.3206L107.79 45.2068C108.426 45.6809 109.189 45.9407 109.994 45.9407C110.99 45.9407 111.926 45.5488 112.63 44.8372L121.91 35.4561C123.363 33.9871 123.363 31.5965 121.91 30.1275ZM27.0375 72.1066C25.3065 70.3569 25.3065 67.5097 27.0375 65.76L30.6615 62.0966C31.5271 61.2216 32.6639 60.7842 33.8007 60.7842C34.9376 60.7842 36.0744 61.2216 36.94 62.0966C38.6709 63.8463 38.6709 66.6935 36.94 68.4432L33.3159 72.1066C31.585 73.8564 28.7684 73.8564 27.0375 72.1066ZM35.8639 81.0289C35.0255 80.1814 34.5635 79.0543 34.5635 77.8556C34.5635 76.6569 35.0253 75.5298 35.8639 74.6823L37.7657 72.7599C38.6313 71.8849 39.7681 71.4475 40.9049 71.4475C42.0418 71.4475 43.1786 71.8849 44.0442 72.7599C45.7751 74.5096 45.7751 77.3568 44.0442 79.1065L42.1424 81.0289C41.304 81.8765 40.189 82.3435 39.0032 82.3435C37.8173 82.3435 36.7024 81.8765 35.8639 81.0289ZM45.7938 88.8361C44.0629 87.0864 44.0629 84.2392 45.7938 82.4894C46.6594 81.6145 47.7963 81.1771 48.9331 81.1771C50.0699 81.1771 51.2067 81.6145 52.0723 82.4894C53.8033 84.2392 53.8033 87.0864 52.0723 88.8361C50.3414 90.5858 47.5248 90.5858 45.7938 88.8361ZM95.2971 67.9364C95.2649 69.1788 94.7414 70.3234 93.823 71.1593C92.1881 72.6477 89.1601 72.4471 87.4702 70.7389L80.6433 63.8378C79.9396 63.1265 78.7987 63.1265 78.0953 63.8378C77.3916 64.5491 77.3916 65.7024 78.0953 66.4135L83.3119 71.6867C84.1816 72.5659 84.6428 73.7349 84.6106 74.9783C84.5785 76.2207 84.055 77.3653 83.1368 78.2012C81.5014 79.6894 78.4734 79.489 76.7838 77.7808L69.9429 70.8657C69.2395 70.1544 68.0986 70.1544 67.3949 70.8657C66.6913 71.577 66.6913 72.73 67.3949 73.4413L72.6113 78.7146C73.481 79.5937 73.9422 80.7628 73.91 82.0062C73.8778 83.2486 73.3544 84.3932 72.4362 85.229C70.8011 86.7172 67.7733 86.5171 66.0835 84.8089L59.3341 77.9863C58.6304 77.275 57.4895 77.275 56.7861 77.9863C56.0824 78.6976 56.0824 79.8509 56.7861 80.5619L62.0025 85.835L62.009 85.8415C62.8745 86.7199 63.3334 87.8861 63.3012 89.1265C63.269 90.369 62.7455 91.5135 61.8271 92.3494C60.1922 93.8376 57.1645 93.6375 55.4744 91.929L54.7873 91.2345C57.7536 88.0522 57.6997 83.0257 54.6208 79.9133C53.0155 78.2906 50.8947 77.5006 48.7863 77.5392C49.2966 74.9606 48.566 72.1788 46.5926 70.1837C45.1586 68.7342 43.3136 67.9498 41.4332 67.8257C42.3541 65.0006 41.7073 61.7631 39.4885 59.5202C37.5281 57.5385 34.7989 56.7956 32.2622 57.2915L17.7915 42.6637L18.4058 42.0427C19.1095 41.3314 19.1095 40.1781 18.4058 39.4671C17.7021 38.7557 16.5612 38.7557 15.8578 39.4671L13.0941 42.2608C13.0849 42.2698 13.0578 42.2975 13.0064 42.2975C12.955 42.2975 12.9276 42.2698 12.9187 42.2608L3.63864 32.88C3.59011 32.8309 3.59011 32.7513 3.63864 32.7025L32.3504 3.67918C32.3593 3.6702 32.3867 3.64251 32.4379 3.64251C32.4893 3.64251 32.5166 3.6702 32.5255 3.67918L41.8058 13.06C41.8147 13.0692 41.8421 13.0967 41.8421 13.1486C41.8421 13.2004 41.8147 13.2281 41.8058 13.2373L21.2712 33.9949C20.5675 34.7062 20.5675 35.8595 21.2712 36.5706C21.9748 37.2819 23.1158 37.2819 23.8192 36.5706L42.022 18.1701L46.5629 22.7602C46.9086 23.1096 47.3696 23.2937 47.8373 23.2937C48.1004 23.2937 48.3656 23.2354 48.6136 23.1159C51.1205 21.9053 54.0692 21.3907 57.0117 21.5853C56.4471 22.0294 55.9008 22.5086 55.3821 23.0331L45.5024 33.0201C42.3663 36.1903 42.3663 41.3482 45.5024 44.5183C47.0215 46.0539 49.0412 46.8997 51.1897 46.8997C53.3382 46.8997 55.3579 46.0541 56.8769 44.5183L64.033 37.2846C64.8323 36.4768 66.1329 36.4766 66.932 37.2846L93.9981 64.6446C94.8682 65.5237 95.3295 66.6928 95.2971 67.9364ZM119.362 32.8805L110.082 42.2613C110.073 42.2703 110.046 42.298 109.994 42.298C109.943 42.298 109.916 42.2703 109.906 42.2613L89.4921 21.6253C88.7885 20.914 87.6475 20.914 86.9441 21.6253C86.2404 22.3366 86.2404 23.4899 86.9441 24.201L105.209 42.6642L91.28 56.7444L69.4807 34.7082C67.2763 32.4803 63.6897 32.4805 61.4855 34.7082L54.3294 41.9422C52.5984 43.6919 49.7819 43.6919 48.0509 41.9422C46.32 40.1925 46.32 37.3453 48.0509 35.5955L57.9306 25.6086C63.3118 20.1692 72.0676 20.1692 77.449 25.6086C78.1527 26.3199 79.2936 26.3199 79.997 25.6086C80.7007 24.8973 80.7007 23.744 79.997 23.0329C79.3457 22.3745 78.6546 21.7808 77.9326 21.2487L80.9782 18.1698L81.4846 18.6817C82.1883 19.3931 83.3292 19.3931 84.0326 18.6817C84.7363 17.9704 84.7363 16.8171 84.0326 16.1061L81.1944 13.237C81.1855 13.2278 81.1581 13.2004 81.1581 13.1484C81.1581 13.0964 81.1855 13.0687 81.1944 13.0598L90.4747 3.6787C90.4836 3.66971 90.511 3.64203 90.5624 3.64203C90.6136 3.64203 90.641 3.66971 90.6501 3.6787L119.362 32.7025C119.41 32.752 119.41 32.8317 119.362 32.8805Z" fill="white"/>
</svg>
