<svg width="203" height="104" viewBox="0 0 203 104" fill="none" xmlns="http://www.w3.org/2000/svg">
<path d="M149 51.5754C149 51.1339 149.196 50.6435 149.539 50.3002C150.226 49.6135 151.403 49.6135 152.09 50.3002L201.726 99.9362C202.412 100.623 202.412 101.8 201.726 102.487C201.039 103.173 199.862 103.173 199.175 102.487L149.539 52.8506C149.196 52.5073 149 52.0659 149 51.5754Z" fill="white"/>
<path d="M149 68.1028C149 67.6614 149.197 67.1708 149.54 66.8275C150.227 66.1408 151.404 66.1408 152.09 66.8275L185.197 99.9346C185.884 100.621 185.884 101.798 185.197 102.485C184.511 103.172 183.334 103.172 182.647 102.485L149.54 69.378C149.197 69.0347 149 68.5933 149 68.1028Z" fill="white"/>
<path d="M149 84.6808C149 84.2394 149.196 83.749 149.54 83.4056C150.226 82.719 151.404 82.719 152.09 83.4056L168.619 99.9346C169.306 100.621 169.306 101.798 168.619 102.485C167.933 103.172 166.755 103.172 166.069 102.485L149.54 85.9561C149.196 85.6127 149 85.1223 149 84.6808Z" fill="white"/>
<path d="M165.578 51.5754C165.578 51.1339 165.775 50.6435 166.118 50.3002C166.805 49.6135 167.982 49.6135 168.668 50.3002L201.776 83.4072C202.462 84.0939 202.462 85.271 201.776 85.9577C201.089 86.6443 199.912 86.6443 199.225 85.9577L166.118 52.8506C165.726 52.5073 165.578 52.0659 165.578 51.5754Z" fill="white"/>
<path d="M182.107 51.5754C182.107 51.1339 182.303 50.6435 182.646 50.3002C183.333 49.6135 184.51 49.6135 185.197 50.3002L201.726 66.8291C202.412 67.5158 202.412 68.693 201.726 69.3796C201.039 70.0663 199.862 70.0663 199.175 69.3796L182.646 52.8506C182.254 52.5073 182.107 52.0659 182.107 51.5754Z" fill="white"/>
<path d="M149 1.79022C149 1.34879 149.196 0.858329 149.539 0.514996C150.226 -0.171669 151.403 -0.171668 152.09 0.514996L201.726 50.151C202.412 50.8377 202.412 52.0149 201.726 52.7015C201.039 53.3882 199.862 53.3882 199.175 52.7015L149.539 3.06544C149.196 2.72211 149 2.28069 149 1.79022Z" fill="white"/>
<path d="M149 18.3176C149 17.8762 149.197 17.3857 149.54 17.0423C150.227 16.3557 151.404 16.3557 152.09 17.0423L185.197 50.1494C185.884 50.8361 185.884 52.0132 185.197 52.6999C184.511 53.3866 183.334 53.3866 182.647 52.6999L149.54 19.5928C149.197 19.2495 149 18.8081 149 18.3176Z" fill="white"/>
<path d="M149 34.8957C149 34.4543 149.196 33.9638 149.54 33.6205C150.226 32.9338 151.404 32.9338 152.09 33.6205L168.619 50.1495C169.306 50.8361 169.306 52.0133 168.619 52.7C167.933 53.3866 166.755 53.3866 166.069 52.7L149.54 36.1709C149.196 35.8276 149 35.3371 149 34.8957Z" fill="white"/>
<path d="M165.578 1.79022C165.578 1.34879 165.775 0.85833 166.118 0.514997C166.805 -0.171668 167.982 -0.171668 168.668 0.514997L201.776 33.6221C202.462 34.3087 202.462 35.4858 201.776 36.1725C201.089 36.8592 199.912 36.8592 199.225 36.1725L166.118 3.06544C165.726 2.72211 165.578 2.2807 165.578 1.79022Z" fill="white"/>
<path d="M182.107 1.79022C182.107 1.34879 182.303 0.85833 182.646 0.514998C183.333 -0.171667 184.51 -0.171667 185.197 0.514998L201.726 17.044C202.412 17.7306 202.412 18.9078 201.726 19.5945C201.039 20.2812 199.862 20.2812 199.175 19.5945L182.646 3.06544C182.254 2.72211 182.107 2.2807 182.107 1.79022Z" fill="white"/>
<path d="M98.9997 51.5754C98.9997 51.1339 99.1958 50.6435 99.5392 50.3002C100.226 49.6135 101.403 49.6135 102.09 50.3002L151.726 99.9362C152.412 100.623 152.412 101.8 151.726 102.487C151.039 103.173 149.862 103.173 149.175 102.487L99.5392 52.8506C99.1958 52.5073 98.9997 52.0659 98.9997 51.5754Z" fill="white"/>
<path d="M99.0004 68.1028C99.0004 67.6614 99.1965 67.1708 99.5399 66.8275C100.227 66.1408 101.404 66.1408 102.09 66.8275L135.197 99.9346C135.884 100.621 135.884 101.798 135.197 102.485C134.511 103.172 133.334 103.172 132.647 102.485L99.5399 69.378C99.1965 69.0347 99.0004 68.5933 99.0004 68.1028Z" fill="white"/>
<path d="M99.0003 84.6808C99.0003 84.2394 99.1965 83.749 99.5398 83.4056C100.226 82.719 101.404 82.719 102.09 83.4056L118.619 99.9346C119.306 100.621 119.306 101.798 118.619 102.485C117.933 103.172 116.755 103.172 116.069 102.485L99.5398 85.9561C99.1965 85.6127 99.0003 85.1223 99.0003 84.6808Z" fill="white"/>
<path d="M115.578 51.5754C115.578 51.1339 115.775 50.6435 116.118 50.3002C116.805 49.6135 117.982 49.6135 118.668 50.3002L151.776 83.4072C152.462 84.0939 152.462 85.271 151.776 85.9577C151.089 86.6443 149.912 86.6443 149.225 85.9577L116.118 52.8506C115.726 52.5073 115.578 52.0659 115.578 51.5754Z" fill="white"/>
<path d="M132.107 51.5754C132.107 51.1339 132.303 50.6435 132.646 50.3002C133.333 49.6135 134.51 49.6135 135.197 50.3002L151.726 66.8291C152.412 67.5158 152.412 68.693 151.726 69.3796C151.039 70.0663 149.862 70.0663 149.175 69.3796L132.646 52.8506C132.254 52.5073 132.107 52.0659 132.107 51.5754Z" fill="white"/>
<path d="M98.9997 1.79022C98.9997 1.34879 99.1958 0.858329 99.5392 0.514996C100.226 -0.171669 101.403 -0.171668 102.09 0.514996L151.726 50.151C152.412 50.8377 152.412 52.0149 151.726 52.7015C151.039 53.3882 149.862 53.3882 149.175 52.7015L99.5392 3.06544C99.1958 2.72211 98.9997 2.28069 98.9997 1.79022Z" fill="white"/>
<path d="M99.0004 18.3176C99.0004 17.8762 99.1965 17.3857 99.5399 17.0423C100.227 16.3557 101.404 16.3557 102.09 17.0423L135.197 50.1494C135.884 50.8361 135.884 52.0132 135.197 52.6999C134.511 53.3866 133.334 53.3866 132.647 52.6999L99.5399 19.5928C99.1965 19.2495 99.0004 18.8081 99.0004 18.3176Z" fill="white"/>
<path d="M99.0003 34.8957C99.0003 34.4543 99.1965 33.9638 99.5398 33.6205C100.226 32.9338 101.404 32.9338 102.09 33.6205L118.619 50.1495C119.306 50.8361 119.306 52.0133 118.619 52.7C117.933 53.3866 116.755 53.3866 116.069 52.7L99.5398 36.1709C99.1965 35.8276 99.0003 35.3371 99.0003 34.8957Z" fill="white"/>
<path d="M115.578 1.79022C115.578 1.34879 115.775 0.85833 116.118 0.514997C116.805 -0.171668 117.982 -0.171668 118.668 0.514997L151.776 33.6221C152.462 34.3087 152.462 35.4858 151.776 36.1725C151.089 36.8592 149.912 36.8592 149.225 36.1725L116.118 3.06544C115.726 2.72211 115.578 2.2807 115.578 1.79022Z" fill="white"/>
<path d="M132.107 1.79022C132.107 1.34879 132.303 0.85833 132.646 0.514998C133.333 -0.171667 134.51 -0.171667 135.197 0.514998L151.726 17.044C152.412 17.7306 152.412 18.9078 151.726 19.5945C151.039 20.2812 149.862 20.2812 149.175 19.5945L132.646 3.06544C132.254 2.72211 132.107 2.2807 132.107 1.79022Z" fill="white"/>
<path d="M65.9997 51.5754C65.9997 51.1339 66.1958 50.6435 66.5392 50.3002C67.2258 49.6135 68.403 49.6135 69.0896 50.3002L118.726 99.9362C119.412 100.623 119.412 101.8 118.726 102.487C118.039 103.173 116.862 103.173 116.175 102.487L66.5392 52.8506C66.1958 52.5073 65.9997 52.0659 65.9997 51.5754Z" fill="white"/>
<path d="M66.0004 68.1028C66.0004 67.6614 66.1965 67.1708 66.5399 66.8275C67.2265 66.1408 68.4037 66.1408 69.0903 66.8275L102.197 99.9346C102.884 100.621 102.884 101.798 102.197 102.485C101.511 103.172 100.334 103.172 99.6469 102.485L66.5399 69.378C66.1965 69.0347 66.0004 68.5933 66.0004 68.1028Z" fill="white"/>
<path d="M66.0003 84.6808C66.0003 84.2394 66.1965 83.749 66.5398 83.4056C67.2265 82.719 68.4036 82.719 69.0903 83.4056L85.6193 99.9346C86.3059 100.621 86.3059 101.798 85.6193 102.485C84.9326 103.172 83.7555 103.172 83.0688 102.485L66.5398 85.9561C66.1965 85.6127 66.0003 85.1223 66.0003 84.6808Z" fill="white"/>
<path d="M82.5785 51.5754C82.5785 51.1339 82.7747 50.6435 83.118 50.3002C83.8047 49.6135 84.9818 49.6135 85.6685 50.3002L118.776 83.4072C119.462 84.0939 119.462 85.271 118.776 85.9577C118.089 86.6443 116.912 86.6443 116.225 85.9577L83.118 52.8506C82.7256 52.5073 82.5785 52.0659 82.5785 51.5754Z" fill="white"/>
<path d="M99.1067 51.5754C99.1067 51.1339 99.3029 50.6435 99.6462 50.3002C100.333 49.6135 101.51 49.6135 102.197 50.3002L118.726 66.8291C119.412 67.5158 119.412 68.693 118.726 69.3796C118.039 70.0663 116.862 70.0663 116.175 69.3796L99.6462 52.8506C99.2539 52.5073 99.1067 52.0659 99.1067 51.5754Z" fill="white"/>
<path d="M65.9997 1.79022C65.9997 1.34879 66.1958 0.858329 66.5392 0.514996C67.2258 -0.171669 68.403 -0.171668 69.0896 0.514996L118.726 50.151C119.412 50.8377 119.412 52.0149 118.726 52.7015C118.039 53.3882 116.862 53.3882 116.175 52.7015L66.5392 3.06544C66.1958 2.72211 65.9997 2.28069 65.9997 1.79022Z" fill="white"/>
<path d="M66.0004 18.3176C66.0004 17.8762 66.1965 17.3857 66.5399 17.0423C67.2265 16.3557 68.4037 16.3557 69.0903 17.0423L102.197 50.1494C102.884 50.8361 102.884 52.0132 102.197 52.6999C101.511 53.3866 100.334 53.3866 99.6469 52.6999L66.5399 19.5928C66.1965 19.2495 66.0004 18.8081 66.0004 18.3176Z" fill="white"/>
<path d="M66.0003 34.8957C66.0003 34.4543 66.1965 33.9638 66.5398 33.6205C67.2265 32.9338 68.4036 32.9338 69.0903 33.6205L85.6193 50.1495C86.3059 50.8361 86.3059 52.0133 85.6193 52.7C84.9326 53.3866 83.7555 53.3866 83.0688 52.7L66.5398 36.1709C66.1965 35.8276 66.0003 35.3371 66.0003 34.8957Z" fill="white"/>
<path d="M82.5785 1.79022C82.5785 1.34879 82.7747 0.85833 83.118 0.514997C83.8047 -0.171668 84.9818 -0.171668 85.6685 0.514997L118.776 33.6221C119.462 34.3087 119.462 35.4858 118.776 36.1725C118.089 36.8592 116.912 36.8592 116.225 36.1725L83.118 3.06544C82.7256 2.72211 82.5785 2.2807 82.5785 1.79022Z" fill="white"/>
<path d="M99.1067 1.79022C99.1067 1.34879 99.3029 0.85833 99.6462 0.514998C100.333 -0.171667 101.51 -0.171667 102.197 0.514998L118.726 17.044C119.412 17.7306 119.412 18.9078 118.726 19.5945C118.039 20.2812 116.862 20.2812 116.175 19.5945L99.6462 3.06544C99.2539 2.72211 99.1067 2.2807 99.1067 1.79022Z" fill="white"/>
<path d="M32.9997 51.5754C32.9997 51.1339 33.1958 50.6435 33.5392 50.3002C34.2258 49.6135 35.403 49.6135 36.0896 50.3002L85.7257 99.9362C86.4124 100.623 86.4124 101.8 85.7257 102.487C85.0391 103.173 83.8619 103.173 83.1752 102.487L33.5392 52.8506C33.1958 52.5073 32.9997 52.0659 32.9997 51.5754Z" fill="white"/>
<path d="M33.0004 68.1028C33.0004 67.6614 33.1965 67.1708 33.5399 66.8275C34.2265 66.1408 35.4037 66.1408 36.0903 66.8275L69.1974 99.9346C69.8841 100.621 69.8841 101.798 69.1974 102.485C68.5107 103.172 67.3336 103.172 66.6469 102.485L33.5399 69.378C33.1965 69.0347 33.0004 68.5933 33.0004 68.1028Z" fill="white"/>
<path d="M33.0003 84.6808C33.0003 84.2394 33.1965 83.749 33.5398 83.4056C34.2265 82.719 35.4036 82.719 36.0903 83.4056L52.6193 99.9346C53.3059 100.621 53.3059 101.798 52.6193 102.485C51.9326 103.172 50.7555 103.172 50.0688 102.485L33.5398 85.9561C33.1965 85.6127 33.0003 85.1223 33.0003 84.6808Z" fill="white"/>
<path d="M49.5785 51.5754C49.5785 51.1339 49.7747 50.6435 50.118 50.3002C50.8047 49.6135 51.9818 49.6135 52.6685 50.3002L85.7755 83.4072C86.4622 84.0939 86.4622 85.271 85.7755 85.9577C85.0889 86.6443 83.9117 86.6443 83.2251 85.9577L50.118 52.8506C49.7256 52.5073 49.5785 52.0659 49.5785 51.5754Z" fill="white"/>
<path d="M66.1067 51.5754C66.1067 51.1339 66.3029 50.6435 66.6462 50.3002C67.3329 49.6135 68.51 49.6135 69.1967 50.3002L85.7257 66.8291C86.4124 67.5158 86.4124 68.693 85.7257 69.3796C85.0391 70.0663 83.8619 70.0663 83.1752 69.3796L66.6462 52.8506C66.2539 52.5073 66.1067 52.0659 66.1067 51.5754Z" fill="white"/>
<path d="M32.9997 1.79022C32.9997 1.34879 33.1958 0.858329 33.5392 0.514996C34.2258 -0.171669 35.403 -0.171668 36.0896 0.514996L85.7257 50.151C86.4124 50.8377 86.4124 52.0149 85.7257 52.7015C85.0391 53.3882 83.8619 53.3882 83.1752 52.7015L33.5392 3.06544C33.1958 2.72211 32.9997 2.28069 32.9997 1.79022Z" fill="white"/>
<path d="M33.0004 18.3176C33.0004 17.8762 33.1965 17.3857 33.5399 17.0423C34.2265 16.3557 35.4037 16.3557 36.0903 17.0423L69.1974 50.1494C69.8841 50.8361 69.8841 52.0132 69.1974 52.6999C68.5107 53.3866 67.3336 53.3866 66.6469 52.6999L33.5399 19.5928C33.1965 19.2495 33.0004 18.8081 33.0004 18.3176Z" fill="white"/>
<path d="M33.0003 34.8957C33.0003 34.4543 33.1965 33.9638 33.5398 33.6205C34.2265 32.9338 35.4036 32.9338 36.0903 33.6205L52.6193 50.1495C53.3059 50.8361 53.3059 52.0133 52.6193 52.7C51.9326 53.3866 50.7555 53.3866 50.0688 52.7L33.5398 36.1709C33.1965 35.8276 33.0003 35.3371 33.0003 34.8957Z" fill="white"/>
<path d="M49.5785 1.79022C49.5785 1.34879 49.7747 0.85833 50.118 0.514997C50.8047 -0.171668 51.9818 -0.171668 52.6685 0.514997L85.7755 33.6221C86.4622 34.3087 86.4622 35.4858 85.7755 36.1725C85.0889 36.8592 83.9117 36.8592 83.2251 36.1725L50.118 3.06544C49.7256 2.72211 49.5785 2.2807 49.5785 1.79022Z" fill="white"/>
<path d="M66.1067 1.79022C66.1067 1.34879 66.3029 0.85833 66.6462 0.514998C67.3329 -0.171667 68.51 -0.171667 69.1967 0.514998L85.7257 17.044C86.4124 17.7306 86.4124 18.9078 85.7257 19.5945C85.0391 20.2812 83.8619 20.2812 83.1752 19.5945L66.6462 3.06544C66.2539 2.72211 66.1067 2.2807 66.1067 1.79022Z" fill="white"/>
<path d="M-0.000339586 51.5754C-0.000339567 51.1339 0.195839 50.6435 0.539169 50.3002C1.22583 49.6135 2.40298 49.6135 3.08965 50.3002L52.7257 99.9362C53.4124 100.623 53.4124 101.8 52.7257 102.487C52.0391 103.173 50.8619 103.173 50.1752 102.487L0.539169 52.8506C0.195839 52.5073 -0.000339608 52.0659 -0.000339586 51.5754Z" fill="white"/>
<path d="M0.000354689 68.1028C0.000354708 67.6614 0.196533 67.1708 0.539867 66.8275C1.22653 66.1408 2.40368 66.1408 3.09034 66.8275L36.1974 99.9346C36.8841 100.621 36.8841 101.798 36.1974 102.485C35.5107 103.172 34.3336 103.172 33.6469 102.485L0.539867 69.378C0.196533 69.0347 0.000354667 68.5933 0.000354689 68.1028Z" fill="white"/>
<path d="M0.000280302 84.6808C0.000280321 84.2394 0.196459 83.749 0.539791 83.4056C1.22646 82.719 2.4036 82.719 3.09027 83.4056L19.6193 99.9346C20.3059 100.621 20.3059 101.798 19.6193 102.485C18.9326 103.172 17.7555 103.172 17.0688 102.485L0.539791 85.9561C0.196459 85.6127 0.000280283 85.1223 0.000280302 84.6808Z" fill="white"/>
<path d="M16.5785 51.5754C16.5785 51.1339 16.7747 50.6435 17.118 50.3002C17.8047 49.6135 18.9818 49.6135 19.6685 50.3002L52.7755 83.4072C53.4622 84.0939 53.4622 85.271 52.7755 85.9577C52.0889 86.6443 50.9117 86.6443 50.2251 85.9577L17.118 52.8506C16.7256 52.5073 16.5785 52.0659 16.5785 51.5754Z" fill="white"/>
<path d="M33.1067 51.5754C33.1067 51.1339 33.3029 50.6435 33.6462 50.3002C34.3329 49.6135 35.51 49.6135 36.1967 50.3002L52.7257 66.8291C53.4124 67.5158 53.4124 68.693 52.7257 69.3796C52.0391 70.0663 50.8619 70.0663 50.1752 69.3796L33.6462 52.8506C33.2539 52.5073 33.1067 52.0659 33.1067 51.5754Z" fill="white"/>
<path d="M-0.000339586 1.79022C-0.000339567 1.34879 0.195839 0.858329 0.539169 0.514996C1.22583 -0.171669 2.40298 -0.171668 3.08965 0.514996L52.7257 50.151C53.4124 50.8377 53.4124 52.0149 52.7257 52.7015C52.0391 53.3882 50.8619 53.3882 50.1752 52.7015L0.539169 3.06544C0.195839 2.72211 -0.000339608 2.28069 -0.000339586 1.79022Z" fill="white"/>
<path d="M0.000354689 18.3176C0.000354708 17.8762 0.196533 17.3857 0.539867 17.0423C1.22653 16.3557 2.40368 16.3557 3.09034 17.0423L36.1974 50.1494C36.8841 50.8361 36.8841 52.0132 36.1974 52.6999C35.5107 53.3866 34.3336 53.3866 33.6469 52.6999L0.539867 19.5928C0.196533 19.2495 0.000354667 18.8081 0.000354689 18.3176Z" fill="white"/>
<path d="M0.000280302 34.8957C0.000280321 34.4543 0.196459 33.9638 0.539791 33.6205C1.22646 32.9338 2.4036 32.9338 3.09027 33.6205L19.6193 50.1495C20.3059 50.8361 20.3059 52.0133 19.6193 52.7C18.9326 53.3866 17.7555 53.3866 17.0688 52.7L0.539791 36.1709C0.196459 35.8276 0.000280283 35.3371 0.000280302 34.8957Z" fill="white"/>
<path d="M16.5785 1.79022C16.5785 1.34879 16.7747 0.85833 17.118 0.514997C17.8047 -0.171668 18.9818 -0.171668 19.6685 0.514997L52.7755 33.6221C53.4622 34.3087 53.4622 35.4858 52.7755 36.1725C52.0889 36.8592 50.9117 36.8592 50.2251 36.1725L17.118 3.06544C16.7256 2.72211 16.5785 2.2807 16.5785 1.79022Z" fill="white"/>
<path d="M33.1067 1.79022C33.1067 1.34879 33.3029 0.85833 33.6462 0.514998C34.3329 -0.171667 35.51 -0.171667 36.1967 0.514998L52.7257 17.044C53.4124 17.7306 53.4124 18.9078 52.7257 19.5945C52.0391 20.2812 50.8619 20.2812 50.1752 19.5945L33.6462 3.06544C33.2539 2.72211 33.1067 2.2807 33.1067 1.79022Z" fill="white"/>
</svg>
