<svg width="103" height="69" viewBox="0 0 103 69" fill="none" xmlns="http://www.w3.org/2000/svg">
<path d="M23.3269 21.4165C22.5728 21.4165 21.8689 21.4668 21.1148 21.517L33.5324 1.45795H22.6733L3.46887 32.4766C1.25684 36.0461 0 40.269 0 44.7936C0 57.7139 10.4569 68.1708 23.3269 68.1708C36.1969 68.1708 46.704 57.7139 46.704 44.7936C46.704 31.8734 36.2471 21.4165 23.3269 21.4165ZM23.3269 58.8702C15.7356 58.8702 9.55195 52.5357 9.55195 44.7936C9.55195 42.0789 10.3061 39.5149 11.6132 37.3532C14.0263 33.3313 18.3498 30.6668 23.3269 30.6668C30.9182 30.6668 37.1018 37.0013 37.1018 44.7434C37.1018 52.4855 30.9182 58.8702 23.3269 58.8702Z" fill="#343779"/>
<path d="M79.0802 0C66.1599 0 55.7533 10.4569 55.7533 23.3772V44.7433C55.7533 57.6636 66.2102 68.1205 79.0802 68.1205C92.0004 68.1205 102.457 57.6636 102.457 44.7433V23.3772C102.457 10.4569 92.0004 0 79.0802 0ZM92.8551 44.7433C92.8551 52.5357 86.7217 58.8199 79.0802 58.8199C71.4889 58.8199 65.3052 52.4855 65.3052 44.7433V23.3772C65.3052 15.5848 71.4386 9.30058 79.0802 9.30058C86.6715 9.30058 92.8551 15.635 92.8551 23.3772V44.7433Z" fill="#343779"/>
</svg>
