<svg width="68" height="105" viewBox="0 0 68 105" fill="none" xmlns="http://www.w3.org/2000/svg">
<path d="M44.5 98C44.5 99.178 43.6705 100.522 41.7295 101.654C39.8253 102.765 37.0959 103.5 34 103.5C30.9041 103.5 28.1747 102.765 26.2705 101.654C24.3295 100.522 23.5 99.178 23.5 98C23.5 96.822 24.3295 95.4782 26.2705 94.3459C28.1747 93.2352 30.9041 92.5 34 92.5C37.0959 92.5 39.8253 93.2352 41.7295 94.3459C43.6705 95.4782 44.5 96.822 44.5 98Z" stroke="white" stroke-width="3"/>
<path d="M1.5 34.4119C1.5 16.2487 16.0979 1.5 34 1.5C51.9026 1.5 66.5 16.2487 66.5 34.4119C66.5 39.0732 64.966 44.726 62.4648 50.8025C59.9736 56.8549 56.5722 63.2115 52.9473 69.246C45.6982 81.3143 37.6241 91.9823 34.3536 96.1766C34.172 96.4094 33.8557 96.4074 33.677 96.1843C30.3849 92.0744 22.3038 81.6545 15.0534 69.6901C11.4281 63.7078 8.02756 57.3673 5.53719 51.2568C3.03881 45.1266 1.5 39.3319 1.5 34.4119Z" stroke="white" stroke-width="3"/>
<path d="M18 47V33.547C18 28.8328 21.7464 25 26.3545 25H31V28.1429H26.3545C23.5821 28.1429 21.3343 30.6341 21.3343 33.4704V35.2334H29.9135V38.1847H21.3343V47H18Z" fill="white"/>
<path d="M48.275 42.7993L50 45.381C47.825 47.2143 45.3125 48 43.0625 48C36.6875 48 32 43.0612 32 37C32 30.9388 36.6875 26 43.0625 26C45.3125 26 47.7875 26.7857 50 28.619L48.275 31.2007C46.55 29.8163 44.6 29.2177 42.9125 29.2177C38.675 29.2177 35.5625 32.7721 35.5625 37.0374C35.5625 41.3027 38.675 44.8571 42.9125 44.8571C44.6 44.7823 46.55 44.1837 48.275 42.7993Z" fill="white"/>
</svg>
