<svg width="110" height="106" viewBox="0 0 110 106" fill="none" xmlns="http://www.w3.org/2000/svg">
<mask id="path-1-outside-1" maskUnits="userSpaceOnUse" x="24.1641" y="7.67578" width="62" height="16" fill="black">
<rect fill="white" x="24.1641" y="7.67578" width="62" height="16"/>
<path d="M25.1641 19.2794V12.9173C25.1641 10.6878 26.9257 8.87521 29.0924 8.87521H31.2768V10.3615H29.0924C27.7888 10.3615 26.7319 11.5397 26.7319 12.881V13.7148H30.7659V15.1105H26.7319V19.2794H25.1641Z"/>
<path d="M55.6577 19.5333C53.6143 19.5333 51.9408 17.8113 51.9408 15.7087C51.9408 13.6061 53.6143 11.8842 55.6577 11.8842C57.7012 11.8842 59.3747 13.6061 59.3747 15.7087C59.3747 17.8113 57.7012 19.5333 55.6577 19.5333ZM55.6577 13.3161C54.4246 13.3161 53.4205 14.3855 53.4205 15.7087C53.4205 17.0319 54.4246 18.1013 55.6577 18.1013C56.8908 18.1013 57.895 17.0319 57.895 15.7087C57.895 14.3855 56.8908 13.3161 55.6577 13.3161Z"/>
<path d="M34.7657 19.5332C33.8321 19.4788 32.37 19.0438 32.37 16.9774V8.87521H33.8849V17.0862C33.8849 17.6662 34.202 18.0106 34.7833 18.0831V19.5332H34.7657Z"/>
<path d="M67.3542 11.4309V12.1741H68.8692V13.5516H67.3542V18.9712C67.319 20.6569 66.2973 21.8895 64.6942 21.8895C64.6414 21.8895 64.5709 21.8895 64.5004 21.8895V20.4576C64.5181 20.4576 64.5357 20.4576 64.5533 20.4576C65.4517 20.4576 65.8393 19.8594 65.8393 18.9531V13.5516H62.7389V18.9712C62.7036 20.6569 61.6819 21.8895 60.0789 21.8895C60.026 21.8895 59.9556 21.8895 59.8851 21.8895V20.4576C59.9027 20.4576 59.9203 20.4576 59.9379 20.4576C60.8363 20.4576 61.2239 19.8594 61.2239 18.9531V13.5516H59.7089V12.1741H61.2239V11.594C61.2591 9.90834 62.457 8.67578 64.0601 8.67578C64.1129 8.67578 64.1834 8.67578 64.2538 8.67578V10.1077C64.2362 10.1077 64.2186 10.1077 64.201 10.1077C63.3026 10.1077 62.7212 10.5246 62.7212 11.4309V12.1741H65.8216V11.594C65.8569 9.90834 67.0548 8.67578 68.6578 8.67578C68.7106 8.67578 68.7811 8.67578 68.8516 8.67578V10.1077C68.834 10.1077 68.8163 10.1077 68.7987 10.1077C67.9355 10.1077 67.3542 10.5246 67.3542 11.4309Z"/>
<path d="M73.2197 19.5333C70.8944 19.5333 69.2209 17.9201 69.2209 15.7087C69.2209 13.6061 70.9473 11.8842 73.0083 11.8842C74.7875 11.8842 76.2496 13.1892 76.5843 14.9837C76.6372 15.2193 76.6548 15.4731 76.6548 15.7087C76.6548 15.89 76.6372 16.0712 76.6196 16.3069H70.7711V16.3612C70.9649 17.3763 71.8809 18.1013 73.0083 18.1013C73.6777 18.1013 74.3824 17.8838 75.0518 17.3763L75.8092 18.5363C74.9461 19.2251 74.0829 19.5333 73.2197 19.5333ZM72.9379 13.3161C72.0042 13.3161 70.912 13.9868 70.7711 15.0562V15.1287H75.1046V15.0562C74.9637 13.9868 73.8715 13.3161 72.9379 13.3161Z"/>
<path d="M81.605 19.5333C79.2797 19.5333 77.6062 17.9201 77.6062 15.7087C77.6062 13.6061 79.3326 11.8842 81.3936 11.8842C83.1728 11.8842 84.6349 13.1892 84.9696 14.9837C85.0225 15.2193 85.0401 15.4731 85.0401 15.7087C85.0401 15.89 85.0225 16.0712 85.0049 16.3069H79.1564V16.3612C79.3502 17.3763 80.2662 18.1013 81.3936 18.1013C82.063 18.1013 82.7676 17.8838 83.437 17.3763L84.1945 18.5363C83.3314 19.2251 82.4506 19.5333 81.605 19.5333ZM81.3231 13.3161C80.3895 13.3161 79.2973 13.9868 79.1564 15.0562V15.1287H83.4899V15.0562C83.3314 13.9868 82.2392 13.3161 81.3231 13.3161Z"/>
<path d="M50.8999 17.0318L51.7102 18.2825C50.6885 19.1706 49.5082 19.5513 48.4513 19.5513C45.4566 19.5513 43.2546 17.1587 43.2546 14.2223C43.2546 11.2859 45.4566 8.89329 48.4513 8.89329C49.5082 8.89329 50.6709 9.27393 51.7102 10.1621L50.8999 11.4128C50.0896 10.7421 49.1735 10.4521 48.3808 10.4521C46.3902 10.4521 44.9281 12.1741 44.9281 14.2404C44.9281 16.3067 46.3902 18.0287 48.3808 18.0287C49.1735 17.9924 50.0896 17.7024 50.8999 17.0318Z"/>
<path d="M40.3839 12.174V16.3248C40.3839 17.2855 39.5208 18.1193 38.5343 18.1193C37.6006 18.1193 36.896 17.358 36.896 16.3248V12.174H35.381V16.1979C35.381 18.1011 36.7022 19.5331 38.4286 19.5331C39.3094 19.5331 40.0492 19.0437 40.3663 18.5905V19.3337C40.3663 20.3125 39.5912 21.1281 38.6224 21.1281C38.2348 21.1281 37.6535 20.9106 37.3188 20.6387L36.5613 21.7988C37.1074 22.3063 37.9177 22.5601 38.6224 22.5601C40.4192 22.5601 41.8637 21.0556 41.8637 19.2249V12.174H40.3839Z"/>
</mask>
<path d="M25.1641 19.2794V12.9173C25.1641 10.6878 26.9257 8.87521 29.0924 8.87521H31.2768V10.3615H29.0924C27.7888 10.3615 26.7319 11.5397 26.7319 12.881V13.7148H30.7659V15.1105H26.7319V19.2794H25.1641Z" fill="white"/>
<path d="M55.6577 19.5333C53.6143 19.5333 51.9408 17.8113 51.9408 15.7087C51.9408 13.6061 53.6143 11.8842 55.6577 11.8842C57.7012 11.8842 59.3747 13.6061 59.3747 15.7087C59.3747 17.8113 57.7012 19.5333 55.6577 19.5333ZM55.6577 13.3161C54.4246 13.3161 53.4205 14.3855 53.4205 15.7087C53.4205 17.0319 54.4246 18.1013 55.6577 18.1013C56.8908 18.1013 57.895 17.0319 57.895 15.7087C57.895 14.3855 56.8908 13.3161 55.6577 13.3161Z" fill="white"/>
<path d="M34.7657 19.5332C33.8321 19.4788 32.37 19.0438 32.37 16.9774V8.87521H33.8849V17.0862C33.8849 17.6662 34.202 18.0106 34.7833 18.0831V19.5332H34.7657Z" fill="white"/>
<path d="M67.3542 11.4309V12.1741H68.8692V13.5516H67.3542V18.9712C67.319 20.6569 66.2973 21.8895 64.6942 21.8895C64.6414 21.8895 64.5709 21.8895 64.5004 21.8895V20.4576C64.5181 20.4576 64.5357 20.4576 64.5533 20.4576C65.4517 20.4576 65.8393 19.8594 65.8393 18.9531V13.5516H62.7389V18.9712C62.7036 20.6569 61.6819 21.8895 60.0789 21.8895C60.026 21.8895 59.9556 21.8895 59.8851 21.8895V20.4576C59.9027 20.4576 59.9203 20.4576 59.9379 20.4576C60.8363 20.4576 61.2239 19.8594 61.2239 18.9531V13.5516H59.7089V12.1741H61.2239V11.594C61.2591 9.90834 62.457 8.67578 64.0601 8.67578C64.1129 8.67578 64.1834 8.67578 64.2538 8.67578V10.1077C64.2362 10.1077 64.2186 10.1077 64.201 10.1077C63.3026 10.1077 62.7212 10.5246 62.7212 11.4309V12.1741H65.8216V11.594C65.8569 9.90834 67.0548 8.67578 68.6578 8.67578C68.7106 8.67578 68.7811 8.67578 68.8516 8.67578V10.1077C68.834 10.1077 68.8163 10.1077 68.7987 10.1077C67.9355 10.1077 67.3542 10.5246 67.3542 11.4309Z" fill="white"/>
<path d="M73.2197 19.5333C70.8944 19.5333 69.2209 17.9201 69.2209 15.7087C69.2209 13.6061 70.9473 11.8842 73.0083 11.8842C74.7875 11.8842 76.2496 13.1892 76.5843 14.9837C76.6372 15.2193 76.6548 15.4731 76.6548 15.7087C76.6548 15.89 76.6372 16.0712 76.6196 16.3069H70.7711V16.3612C70.9649 17.3763 71.8809 18.1013 73.0083 18.1013C73.6777 18.1013 74.3824 17.8838 75.0518 17.3763L75.8092 18.5363C74.9461 19.2251 74.0829 19.5333 73.2197 19.5333ZM72.9379 13.3161C72.0042 13.3161 70.912 13.9868 70.7711 15.0562V15.1287H75.1046V15.0562C74.9637 13.9868 73.8715 13.3161 72.9379 13.3161Z" fill="white"/>
<path d="M81.605 19.5333C79.2797 19.5333 77.6062 17.9201 77.6062 15.7087C77.6062 13.6061 79.3326 11.8842 81.3936 11.8842C83.1728 11.8842 84.6349 13.1892 84.9696 14.9837C85.0225 15.2193 85.0401 15.4731 85.0401 15.7087C85.0401 15.89 85.0225 16.0712 85.0049 16.3069H79.1564V16.3612C79.3502 17.3763 80.2662 18.1013 81.3936 18.1013C82.063 18.1013 82.7676 17.8838 83.437 17.3763L84.1945 18.5363C83.3314 19.2251 82.4506 19.5333 81.605 19.5333ZM81.3231 13.3161C80.3895 13.3161 79.2973 13.9868 79.1564 15.0562V15.1287H83.4899V15.0562C83.3314 13.9868 82.2392 13.3161 81.3231 13.3161Z" fill="white"/>
<path d="M50.8999 17.0318L51.7102 18.2825C50.6885 19.1706 49.5082 19.5513 48.4513 19.5513C45.4566 19.5513 43.2546 17.1587 43.2546 14.2223C43.2546 11.2859 45.4566 8.89329 48.4513 8.89329C49.5082 8.89329 50.6709 9.27393 51.7102 10.1621L50.8999 11.4128C50.0896 10.7421 49.1735 10.4521 48.3808 10.4521C46.3902 10.4521 44.9281 12.1741 44.9281 14.2404C44.9281 16.3067 46.3902 18.0287 48.3808 18.0287C49.1735 17.9924 50.0896 17.7024 50.8999 17.0318Z" fill="white"/>
<path d="M40.3839 12.174V16.3248C40.3839 17.2855 39.5208 18.1193 38.5343 18.1193C37.6006 18.1193 36.896 17.358 36.896 16.3248V12.174H35.381V16.1979C35.381 18.1011 36.7022 19.5331 38.4286 19.5331C39.3094 19.5331 40.0492 19.0437 40.3663 18.5905V19.3337C40.3663 20.3125 39.5912 21.1281 38.6224 21.1281C38.2348 21.1281 37.6535 20.9106 37.3188 20.6387L36.5613 21.7988C37.1074 22.3063 37.9177 22.5601 38.6224 22.5601C40.4192 22.5601 41.8637 21.0556 41.8637 19.2249V12.174H40.3839Z" fill="white"/>
<path d="M25.1641 19.2794V12.9173C25.1641 10.6878 26.9257 8.87521 29.0924 8.87521H31.2768V10.3615H29.0924C27.7888 10.3615 26.7319 11.5397 26.7319 12.881V13.7148H30.7659V15.1105H26.7319V19.2794H25.1641Z" stroke="white" stroke-width="0.6" mask="url(#path-1-outside-1)"/>
<path d="M55.6577 19.5333C53.6143 19.5333 51.9408 17.8113 51.9408 15.7087C51.9408 13.6061 53.6143 11.8842 55.6577 11.8842C57.7012 11.8842 59.3747 13.6061 59.3747 15.7087C59.3747 17.8113 57.7012 19.5333 55.6577 19.5333ZM55.6577 13.3161C54.4246 13.3161 53.4205 14.3855 53.4205 15.7087C53.4205 17.0319 54.4246 18.1013 55.6577 18.1013C56.8908 18.1013 57.895 17.0319 57.895 15.7087C57.895 14.3855 56.8908 13.3161 55.6577 13.3161Z" stroke="white" stroke-width="0.6" mask="url(#path-1-outside-1)"/>
<path d="M34.7657 19.5332C33.8321 19.4788 32.37 19.0438 32.37 16.9774V8.87521H33.8849V17.0862C33.8849 17.6662 34.202 18.0106 34.7833 18.0831V19.5332H34.7657Z" stroke="white" stroke-width="0.6" mask="url(#path-1-outside-1)"/>
<path d="M67.3542 11.4309V12.1741H68.8692V13.5516H67.3542V18.9712C67.319 20.6569 66.2973 21.8895 64.6942 21.8895C64.6414 21.8895 64.5709 21.8895 64.5004 21.8895V20.4576C64.5181 20.4576 64.5357 20.4576 64.5533 20.4576C65.4517 20.4576 65.8393 19.8594 65.8393 18.9531V13.5516H62.7389V18.9712C62.7036 20.6569 61.6819 21.8895 60.0789 21.8895C60.026 21.8895 59.9556 21.8895 59.8851 21.8895V20.4576C59.9027 20.4576 59.9203 20.4576 59.9379 20.4576C60.8363 20.4576 61.2239 19.8594 61.2239 18.9531V13.5516H59.7089V12.1741H61.2239V11.594C61.2591 9.90834 62.457 8.67578 64.0601 8.67578C64.1129 8.67578 64.1834 8.67578 64.2538 8.67578V10.1077C64.2362 10.1077 64.2186 10.1077 64.201 10.1077C63.3026 10.1077 62.7212 10.5246 62.7212 11.4309V12.1741H65.8216V11.594C65.8569 9.90834 67.0548 8.67578 68.6578 8.67578C68.7106 8.67578 68.7811 8.67578 68.8516 8.67578V10.1077C68.834 10.1077 68.8163 10.1077 68.7987 10.1077C67.9355 10.1077 67.3542 10.5246 67.3542 11.4309Z" stroke="white" stroke-width="0.6" mask="url(#path-1-outside-1)"/>
<path d="M73.2197 19.5333C70.8944 19.5333 69.2209 17.9201 69.2209 15.7087C69.2209 13.6061 70.9473 11.8842 73.0083 11.8842C74.7875 11.8842 76.2496 13.1892 76.5843 14.9837C76.6372 15.2193 76.6548 15.4731 76.6548 15.7087C76.6548 15.89 76.6372 16.0712 76.6196 16.3069H70.7711V16.3612C70.9649 17.3763 71.8809 18.1013 73.0083 18.1013C73.6777 18.1013 74.3824 17.8838 75.0518 17.3763L75.8092 18.5363C74.9461 19.2251 74.0829 19.5333 73.2197 19.5333ZM72.9379 13.3161C72.0042 13.3161 70.912 13.9868 70.7711 15.0562V15.1287H75.1046V15.0562C74.9637 13.9868 73.8715 13.3161 72.9379 13.3161Z" stroke="white" stroke-width="0.6" mask="url(#path-1-outside-1)"/>
<path d="M81.605 19.5333C79.2797 19.5333 77.6062 17.9201 77.6062 15.7087C77.6062 13.6061 79.3326 11.8842 81.3936 11.8842C83.1728 11.8842 84.6349 13.1892 84.9696 14.9837C85.0225 15.2193 85.0401 15.4731 85.0401 15.7087C85.0401 15.89 85.0225 16.0712 85.0049 16.3069H79.1564V16.3612C79.3502 17.3763 80.2662 18.1013 81.3936 18.1013C82.063 18.1013 82.7676 17.8838 83.437 17.3763L84.1945 18.5363C83.3314 19.2251 82.4506 19.5333 81.605 19.5333ZM81.3231 13.3161C80.3895 13.3161 79.2973 13.9868 79.1564 15.0562V15.1287H83.4899V15.0562C83.3314 13.9868 82.2392 13.3161 81.3231 13.3161Z" stroke="white" stroke-width="0.6" mask="url(#path-1-outside-1)"/>
<path d="M50.8999 17.0318L51.7102 18.2825C50.6885 19.1706 49.5082 19.5513 48.4513 19.5513C45.4566 19.5513 43.2546 17.1587 43.2546 14.2223C43.2546 11.2859 45.4566 8.89329 48.4513 8.89329C49.5082 8.89329 50.6709 9.27393 51.7102 10.1621L50.8999 11.4128C50.0896 10.7421 49.1735 10.4521 48.3808 10.4521C46.3902 10.4521 44.9281 12.1741 44.9281 14.2404C44.9281 16.3067 46.3902 18.0287 48.3808 18.0287C49.1735 17.9924 50.0896 17.7024 50.8999 17.0318Z" stroke="white" stroke-width="0.6" mask="url(#path-1-outside-1)"/>
<path d="M40.3839 12.174V16.3248C40.3839 17.2855 39.5208 18.1193 38.5343 18.1193C37.6006 18.1193 36.896 17.358 36.896 16.3248V12.174H35.381V16.1979C35.381 18.1011 36.7022 19.5331 38.4286 19.5331C39.3094 19.5331 40.0492 19.0437 40.3663 18.5905V19.3337C40.3663 20.3125 39.5912 21.1281 38.6224 21.1281C38.2348 21.1281 37.6535 20.9106 37.3188 20.6387L36.5613 21.7988C37.1074 22.3063 37.9177 22.5601 38.6224 22.5601C40.4192 22.5601 41.8637 21.0556 41.8637 19.2249V12.174H40.3839Z" stroke="white" stroke-width="0.6" mask="url(#path-1-outside-1)"/>
<rect x="1.5" y="92.6172" width="106.339" height="10.8843" stroke="white" stroke-width="3" stroke-linecap="round"/>
<rect x="1.5" y="59.6406" width="29.9752" height="11.7521" stroke="white" stroke-width="3" stroke-linecap="round"/>
<path d="M105.001 91.9852V71.436M4.33984 91.9852V72.1832M105.001 58.7328V38.1836H4.33984V59.4801" stroke="white" stroke-width="3" stroke-linecap="round"/>
<rect x="77.8633" y="59.6406" width="29.9752" height="11.7521" stroke="white" stroke-width="3" stroke-linecap="round"/>
<rect x="17.1211" y="1.5" width="75.9669" height="27.3719" stroke="white" stroke-width="3" stroke-linecap="round"/>
<rect x="44.8867" y="59.6406" width="19.562" height="31.7107" stroke="white" stroke-width="3" stroke-linecap="round"/>
<path d="M32.1094 91.9827L32.1094 71.1562" stroke="white" stroke-width="3" stroke-linecap="round"/>
<path d="M32.1094 45.9909L32.1094 30.3711" stroke="white" stroke-width="3" stroke-linecap="round"/>
<path d="M77.2305 45.9909L77.2305 30.3711" stroke="white" stroke-width="3" stroke-linecap="round"/>
<path d="M77.2305 91.9827L77.2305 71.1562" stroke="white" stroke-width="3" stroke-linecap="round"/>
</svg>
