<svg width="55" height="121" viewBox="0 0 55 121" fill="none" xmlns="http://www.w3.org/2000/svg">
<path d="M9.66085 9.6609C5.87976 9.6609 2.81428 6.59552 2.81428 2.81418C6.59594 2.81418 9.66085 5.87956 9.66085 9.6609ZM2.81428 0H0V2.81418C0 8.14976 4.32547 12.4751 9.66085 12.4751H12.4751V9.66096C12.4751 4.32532 8.14966 0 2.81428 0Z" fill="#343779"/>
<path d="M34.4414 9.6609C38.0506 9.6609 40.9767 6.59552 40.9767 2.81418C37.367 2.81418 34.4414 5.87956 34.4414 9.6609ZM40.9767 0H43.6631V2.81418C43.6631 8.14976 39.5342 12.4751 34.4414 12.4751H31.755V9.66096C31.755 4.32532 35.8839 0 40.9767 0Z" fill="#343779"/>
<path d="M34.4414 32.3C38.0506 32.3 40.9767 35.3654 40.9767 39.1468C37.367 39.1468 34.4414 36.0814 34.4414 32.3ZM40.9767 41.9609L43.6631 41.9609L43.6631 39.1468C43.6631 33.8112 39.5342 29.4858 34.4414 29.4858L31.755 29.4858L31.755 32.3C31.755 37.6356 35.8839 41.9609 40.9767 41.9609Z" fill="#343779"/>
<path d="M9.66086 32.3C5.87976 32.3 2.81428 35.3654 2.81428 39.1468C6.59594 39.1468 9.66085 36.0814 9.66086 32.3ZM2.81428 41.9609L0 41.9609L2.46023e-07 39.1468C7.12475e-07 33.8112 4.32547 29.4858 9.66086 29.4858L12.4751 29.4858L12.4751 32.3C12.4751 37.6356 8.14966 41.9609 2.81428 41.9609Z" fill="#343779"/>
<path d="M9.66085 71.7468C5.87976 71.7468 2.81428 68.6815 2.81428 64.9001C6.59594 64.9001 9.66085 67.9655 9.66085 71.7468ZM2.81428 62.0859H0V64.9001C0 70.2357 4.32547 74.5611 9.66085 74.5611H12.4751V71.7469C12.4751 66.4113 8.14966 62.0859 2.81428 62.0859Z" fill="#343779"/>
<path d="M34.4414 71.7468C38.0506 71.7468 40.9767 68.6815 40.9767 64.9001C37.367 64.9001 34.4414 67.9655 34.4414 71.7468ZM40.9767 62.0859H43.6631V64.9001C43.6631 70.2357 39.5342 74.5611 34.4414 74.5611H31.755V71.7469C31.755 66.4113 35.8839 62.0859 40.9767 62.0859Z" fill="#343779"/>
<path d="M34.4414 94.386C38.0506 94.386 40.9767 97.4514 40.9767 101.233C37.367 101.233 34.4414 98.1673 34.4414 94.386ZM40.9767 104.047L43.6631 104.047L43.6631 101.233C43.6631 95.8971 39.5342 91.5717 34.4414 91.5717L31.755 91.5717L31.755 94.3859C31.755 99.7216 35.8839 104.047 40.9767 104.047Z" fill="#343779"/>
<path d="M9.66086 94.386C5.87976 94.386 2.81428 97.4514 2.81428 101.233C6.59594 101.233 9.66085 98.1673 9.66086 94.386ZM2.81428 104.047L0 104.047L2.46023e-07 101.233C7.12475e-07 95.8971 4.32547 91.5717 9.66086 91.5717L12.4751 91.5717L12.4751 94.3859C12.4751 99.7216 8.14966 104.047 2.81428 104.047Z" fill="#343779"/>
</svg>
