<svg width="211" height="841" viewBox="0 0 211 841" fill="none" xmlns="http://www.w3.org/2000/svg">
<g opacity="0.5">
<path d="M198.632 653.637C198.632 648.867 202.499 645 207.27 645C207.27 649.77 203.402 653.637 198.632 653.637ZM210.82 645L210.82 641.449L207.27 641.449C200.538 641.449 195.082 646.906 195.082 653.637L195.082 657.187L198.632 657.187C205.363 657.187 210.82 651.731 210.82 645Z" fill="white"/>
<path d="M198.632 574.231C198.632 569.461 202.499 565.593 207.27 565.593C207.27 570.364 203.402 574.231 198.632 574.231ZM210.82 565.593L210.82 562.043L207.27 562.043C200.538 562.043 195.082 567.5 195.082 574.231L195.082 577.781L198.632 577.781C205.363 577.781 210.82 572.324 210.82 565.593Z" fill="white"/>
<path d="M198.632 495.661C198.632 490.89 202.499 487.023 207.27 487.023C207.27 491.794 203.402 495.661 198.632 495.661ZM210.82 487.023L210.82 483.473L207.27 483.473C200.538 483.473 195.082 488.93 195.082 495.661L195.082 499.211L198.632 499.211C205.363 499.211 210.82 493.754 210.82 487.023Z" fill="white"/>
<path d="M198.632 416.27C198.632 411.5 202.499 407.632 207.27 407.632C207.27 412.403 203.402 416.27 198.632 416.27ZM210.82 407.632L210.82 404.082L207.27 404.082C200.538 404.082 195.082 409.539 195.082 416.27L195.082 419.82L198.632 419.82C205.363 419.82 210.82 414.363 210.82 407.632Z" fill="white"/>
<path d="M198.632 254.121C198.632 249.351 202.499 245.484 207.27 245.484C207.27 250.255 203.402 254.121 198.632 254.121ZM210.82 245.484L210.82 241.934L207.27 241.934C200.538 241.934 195.082 247.39 195.082 254.121L195.082 257.672L198.632 257.672C205.363 257.672 210.82 252.215 210.82 245.484Z" fill="white"/>
<path d="M198.632 95.8363C198.632 91.0662 202.499 87.1988 207.27 87.1988C207.27 91.9697 203.402 95.8363 198.632 95.8363ZM210.82 87.1988L210.82 83.6484L207.27 83.6484C200.538 83.6484 195.082 89.1053 195.082 95.8363L195.082 99.3867L198.632 99.3867C205.363 99.3867 210.82 93.9298 210.82 87.1988Z" fill="white"/>
<path d="M198.632 332.621C198.632 327.851 202.499 323.984 207.27 323.984C207.27 328.755 203.402 332.621 198.632 332.621ZM210.82 323.984L210.82 320.434L207.27 320.434C200.538 320.434 195.082 325.89 195.082 332.621L195.082 336.172L198.632 336.172C205.363 336.172 210.82 330.715 210.82 323.984Z" fill="white"/>
<path d="M198.632 170.473C198.632 165.703 202.499 161.836 207.27 161.836C207.27 166.606 203.402 170.473 198.632 170.473ZM210.82 161.836L210.82 158.285L207.27 158.285C200.538 158.285 195.082 163.742 195.082 170.473L195.082 174.023L198.632 174.023C205.363 174.023 210.82 168.567 210.82 161.836Z" fill="white"/>
<path d="M198.632 12.1879C198.632 7.41773 202.499 3.55041 207.27 3.55041C207.27 8.32125 203.402 12.1879 198.632 12.1879ZM210.82 3.55041L210.82 0L207.27 -1.55188e-07C200.538 -4.49419e-07 195.082 5.45688 195.082 12.1879L195.082 15.7383L198.632 15.7383C205.363 15.7383 210.82 10.2814 210.82 3.55041Z" fill="white"/>
<path d="M198.632 812.45C198.632 807.679 202.499 803.812 207.27 803.812C207.27 808.583 203.402 812.45 198.632 812.45ZM210.82 803.812L210.82 800.262L207.27 800.262C200.538 800.262 195.082 805.719 195.082 812.45L195.082 816L198.632 816C205.363 816 210.82 810.543 210.82 803.812Z" fill="white"/>
<path d="M168.115 684.343C168.115 689.114 164.247 692.981 159.477 692.981C159.477 688.21 163.344 684.343 168.115 684.343ZM155.927 692.981L155.927 696.531L159.477 696.531C166.208 696.531 171.665 691.074 171.665 684.343L171.665 680.793L168.115 680.793C161.383 680.793 155.927 686.25 155.927 692.981Z" fill="white"/>
<path d="M198.632 684.897C198.632 689.451 202.499 693.142 207.27 693.142C207.27 688.588 203.402 684.897 198.632 684.897ZM210.82 693.142L210.82 696.531L207.27 696.531C200.538 696.531 195.082 691.322 195.082 684.897L195.082 681.508L198.632 681.508C205.363 681.508 210.82 686.717 210.82 693.142Z" fill="white"/>
<path d="M168.115 811.896C168.115 807.342 164.247 803.651 159.477 803.651C159.477 808.205 163.344 811.896 168.115 811.896ZM155.927 803.651L155.927 800.262L159.477 800.262C166.208 800.262 171.665 805.471 171.665 811.896L171.665 815.285L168.115 815.285C161.383 815.285 155.927 810.076 155.927 803.651Z" fill="white"/>
<path d="M198.632 605.491C198.632 610.044 202.499 613.736 207.27 613.736C207.27 609.182 203.402 605.491 198.632 605.491ZM210.82 613.736L210.82 617.125L207.27 617.125C200.538 617.125 195.082 611.916 195.082 605.491L195.082 602.102L198.632 602.102C205.363 602.102 210.82 607.311 210.82 613.736Z" fill="white"/>
<path d="M198.632 526.921C198.632 531.474 202.499 535.166 207.27 535.166C207.27 530.612 203.402 526.921 198.632 526.921ZM210.82 535.166L210.82 538.555L207.27 538.555C200.538 538.555 195.082 533.346 195.082 526.921L195.082 523.532L198.632 523.532C205.363 523.532 210.82 528.741 210.82 535.166Z" fill="white"/>
<path d="M198.632 447.53C198.632 452.084 202.499 455.775 207.27 455.775C207.27 451.221 203.402 447.53 198.632 447.53ZM210.82 455.775L210.82 459.164L207.27 459.164C200.538 459.164 195.082 453.955 195.082 447.53L195.082 444.141L198.632 444.141C205.363 444.141 210.82 449.35 210.82 455.775Z" fill="white"/>
<path d="M198.632 285.386C198.632 289.939 202.499 293.631 207.27 293.631C207.27 289.077 203.402 285.386 198.632 285.386ZM210.82 293.631L210.82 297.02L207.27 297.02C200.538 297.02 195.082 291.811 195.082 285.386L195.082 281.997L198.632 281.997C205.363 281.997 210.82 287.205 210.82 293.631Z" fill="white"/>
<path d="M198.632 127.097C198.632 131.65 202.499 135.341 207.27 135.341C207.27 130.787 203.402 127.097 198.632 127.097ZM210.82 135.341L210.82 138.73L207.27 138.73C200.538 138.73 195.082 133.522 195.082 127.097L195.082 123.708L198.632 123.708C205.363 123.708 210.82 128.916 210.82 135.341Z" fill="white"/>
<path d="M198.632 363.886C198.632 368.439 202.499 372.131 207.27 372.131C207.27 367.577 203.402 363.886 198.632 363.886ZM210.82 372.131L210.82 375.52L207.27 375.52C200.538 375.52 195.082 370.311 195.082 363.886L195.082 360.497L198.632 360.497C205.363 360.497 210.82 365.705 210.82 372.131Z" fill="white"/>
<path d="M198.632 201.737C198.632 206.291 202.499 209.982 207.27 209.982C207.27 205.428 203.402 201.737 198.632 201.737ZM210.82 209.982L210.82 213.371L207.27 213.371C200.538 213.371 195.082 208.162 195.082 201.737L195.082 198.348L198.632 198.348C205.363 198.348 210.82 203.557 210.82 209.982Z" fill="white"/>
<path d="M198.632 43.4482C198.632 48.0015 202.499 51.693 207.27 51.693C207.27 47.139 203.402 43.4482 198.632 43.4482ZM210.82 51.693L210.82 55.082L207.27 55.082C200.538 55.082 195.082 49.8732 195.082 43.4482L195.082 40.0591L198.632 40.0591C205.363 40.0591 210.82 45.268 210.82 51.693Z" fill="white"/>
<path d="M168.115 653.083C168.115 648.53 164.247 644.838 159.477 644.838C159.477 649.392 163.344 653.083 168.115 653.083ZM155.927 644.838L155.927 641.449L159.477 641.449C166.208 641.449 171.665 646.658 171.665 653.083L171.665 656.472L168.115 656.472C161.383 656.472 155.927 651.263 155.927 644.838Z" fill="white"/>
<path d="M198.632 732.489C198.632 727.936 202.499 724.244 207.27 724.244C207.27 728.798 203.402 732.489 198.632 732.489ZM210.82 724.244L210.82 720.855L207.27 720.855C200.538 720.855 195.082 726.064 195.082 732.489L195.082 735.878L198.632 735.878C205.363 735.878 210.82 730.67 210.82 724.244Z" fill="white"/>
<path d="M168.115 764.304C168.115 768.857 164.247 772.548 159.477 772.548C159.477 767.994 163.344 764.304 168.115 764.304ZM155.927 772.548L155.927 775.938L159.477 775.938C166.208 775.938 171.665 770.729 171.665 764.304L171.665 760.915L168.115 760.915C161.383 760.915 155.927 766.123 155.927 772.548Z" fill="white"/>
<path d="M168.115 605.491C168.115 610.044 164.247 613.736 159.477 613.736C159.477 609.182 163.344 605.491 168.115 605.491ZM155.927 613.736L155.927 617.125L159.477 617.125C166.208 617.125 171.665 611.916 171.665 605.491L171.665 602.102L168.115 602.102C161.383 602.102 155.927 607.311 155.927 613.736Z" fill="white"/>
<path d="M168.115 526.921C168.115 531.474 164.247 535.166 159.477 535.166C159.477 530.612 163.344 526.921 168.115 526.921ZM155.927 535.166L155.927 538.555L159.477 538.555C166.208 538.555 171.665 533.346 171.665 526.921L171.665 523.532L168.115 523.532C161.383 523.532 155.927 528.741 155.927 535.166Z" fill="white"/>
<path d="M168.115 447.53C168.115 452.084 164.247 455.775 159.477 455.775C159.477 451.221 163.344 447.53 168.115 447.53ZM155.927 455.775L155.927 459.164L159.477 459.164C166.208 459.164 171.665 453.955 171.665 447.53L171.665 444.141L168.115 444.141C161.383 444.141 155.927 449.35 155.927 455.775Z" fill="white"/>
<path d="M168.115 285.386C168.115 289.939 164.247 293.631 159.477 293.631C159.477 289.077 163.344 285.386 168.115 285.386ZM155.927 293.631L155.927 297.02L159.477 297.02C166.208 297.02 171.665 291.811 171.665 285.386L171.665 281.997L168.115 281.997C161.383 281.997 155.927 287.205 155.927 293.631Z" fill="white"/>
<path d="M168.115 127.097C168.115 131.65 164.247 135.341 159.477 135.341C159.477 130.787 163.344 127.097 168.115 127.097ZM155.927 135.341L155.927 138.73L159.477 138.73C166.208 138.73 171.665 133.522 171.665 127.097L171.665 123.708L168.115 123.708C161.383 123.708 155.927 128.916 155.927 135.341Z" fill="white"/>
<path d="M168.115 363.886C168.115 368.439 164.247 372.131 159.477 372.131C159.477 367.577 163.344 363.886 168.115 363.886ZM155.927 372.131L155.927 375.52L159.477 375.52C166.208 375.52 171.665 370.311 171.665 363.886L171.665 360.497L168.115 360.497C161.383 360.497 155.927 365.705 155.927 372.131Z" fill="white"/>
<path d="M168.115 201.737C168.115 206.291 164.247 209.982 159.477 209.982C159.477 205.428 163.344 201.737 168.115 201.737ZM155.927 209.982L155.927 213.371L159.477 213.371C166.208 213.371 171.665 208.162 171.665 201.737L171.665 198.348L168.115 198.348C161.383 198.348 155.927 203.557 155.927 209.982Z" fill="white"/>
<path d="M168.115 43.4482C168.115 48.0015 164.247 51.693 159.477 51.693C159.477 47.139 163.344 43.4482 168.115 43.4482ZM155.927 51.693L155.927 55.082L159.477 55.082C166.208 55.082 171.665 49.8732 171.665 43.4482L171.665 40.0591L168.115 40.0591C161.383 40.0591 155.927 45.268 155.927 51.693Z" fill="white"/>
<path d="M198.632 763.75C198.632 768.52 202.499 772.387 207.27 772.387C207.27 767.616 203.402 763.75 198.632 763.75ZM210.82 772.387L210.82 775.938L207.27 775.937C200.538 775.937 195.082 770.481 195.082 763.75L195.082 760.199L198.632 760.199C205.363 760.199 210.82 765.656 210.82 772.387Z" fill="white"/>
<path d="M168.115 733.043C168.115 728.273 164.247 724.406 159.477 724.406C159.477 729.177 163.344 733.043 168.115 733.043ZM155.927 724.406L155.927 720.855L159.477 720.855C166.208 720.855 171.665 726.312 171.665 733.043L171.665 736.594L168.115 736.594C161.383 736.594 155.927 731.137 155.927 724.406Z" fill="white"/>
<path d="M168.115 574.231C168.115 569.461 164.247 565.593 159.477 565.593C159.477 570.364 163.344 574.231 168.115 574.231ZM155.927 565.593L155.927 562.043L159.477 562.043C166.208 562.043 171.665 567.5 171.665 574.231L171.665 577.781L168.115 577.781C161.383 577.781 155.927 572.324 155.927 565.593Z" fill="white"/>
<path d="M168.115 495.661C168.115 490.89 164.247 487.023 159.477 487.023C159.477 491.794 163.344 495.661 168.115 495.661ZM155.927 487.023L155.927 483.473L159.477 483.473C166.208 483.473 171.665 488.93 171.665 495.661L171.665 499.211L168.115 499.211C161.383 499.211 155.927 493.754 155.927 487.023Z" fill="white"/>
<path d="M168.115 416.27C168.115 411.5 164.247 407.632 159.477 407.632C159.477 412.403 163.344 416.27 168.115 416.27ZM155.927 407.632L155.927 404.082L159.477 404.082C166.208 404.082 171.665 409.539 171.665 416.27L171.665 419.82L168.115 419.82C161.383 419.82 155.927 414.363 155.927 407.632Z" fill="white"/>
<path d="M168.115 254.121C168.115 249.351 164.247 245.484 159.477 245.484C159.477 250.255 163.344 254.121 168.115 254.121ZM155.927 245.484L155.927 241.934L159.477 241.934C166.208 241.934 171.665 247.39 171.665 254.121L171.665 257.672L168.115 257.672C161.383 257.672 155.927 252.215 155.927 245.484Z" fill="white"/>
<path d="M168.115 95.8363C168.115 91.0662 164.247 87.1988 159.477 87.1988C159.477 91.9697 163.344 95.8363 168.115 95.8363ZM155.927 87.1988L155.927 83.6484L159.477 83.6484C166.208 83.6484 171.665 89.1053 171.665 95.8363L171.665 99.3867L168.115 99.3867C161.383 99.3867 155.927 93.9298 155.927 87.1988Z" fill="white"/>
<path d="M168.115 332.621C168.115 327.851 164.247 323.984 159.477 323.984C159.477 328.755 163.344 332.621 168.115 332.621ZM155.927 323.984L155.927 320.434L159.477 320.434C166.208 320.434 171.665 325.89 171.665 332.621L171.665 336.172L168.115 336.172C161.383 336.172 155.927 330.715 155.927 323.984Z" fill="white"/>
<path d="M168.115 170.477C168.115 165.707 164.247 161.839 159.477 161.839C159.477 166.61 163.344 170.477 168.115 170.477ZM155.927 161.839L155.927 158.289L159.477 158.289C166.208 158.289 171.665 163.746 171.665 170.477L171.665 174.027L168.115 174.027C161.383 174.027 155.927 168.57 155.927 161.839Z" fill="white"/>
<path d="M168.115 12.1879C168.115 7.41773 164.247 3.55041 159.477 3.55041C159.477 8.32125 163.344 12.1879 168.115 12.1879ZM155.927 3.55041L155.927 0L159.477 4.65564e-07C166.208 1.34826e-06 171.665 5.45689 171.665 12.1879L171.665 15.7383L168.115 15.7383C161.383 15.7383 155.927 10.2814 155.927 3.55041Z" fill="white"/>
<path d="M120.305 653.637C120.305 648.867 124.172 645 128.943 645C128.943 649.77 125.076 653.637 120.305 653.637ZM132.493 645L132.493 641.449L128.943 641.449C122.212 641.449 116.755 646.906 116.755 653.637L116.755 657.187L120.305 657.187C127.036 657.187 132.493 651.731 132.493 645Z" fill="white"/>
<path d="M120.304 574.227C120.304 569.457 124.171 565.589 128.942 565.589C128.942 570.36 125.075 574.227 120.304 574.227ZM132.492 565.589L132.492 562.039L128.942 562.039C122.211 562.039 116.754 567.496 116.754 574.227L116.754 577.777L120.304 577.777C127.035 577.777 132.492 572.32 132.492 565.589Z" fill="white"/>
<path d="M120.304 495.661C120.304 490.89 124.171 487.023 128.942 487.023C128.942 491.794 125.075 495.661 120.304 495.661ZM132.492 487.023L132.492 483.473L128.942 483.473C122.211 483.473 116.754 488.93 116.754 495.661L116.754 499.211L120.304 499.211C127.035 499.211 132.492 493.754 132.492 487.023Z" fill="white"/>
<path d="M120.305 416.27C120.305 411.5 124.172 407.632 128.943 407.632C128.943 412.403 125.076 416.27 120.305 416.27ZM132.493 407.632L132.493 404.082L128.943 404.082C122.212 404.082 116.755 409.539 116.755 416.27L116.755 419.82L120.305 419.82C127.036 419.82 132.493 414.363 132.493 407.632Z" fill="white"/>
<path d="M120.305 254.121C120.305 249.351 124.172 245.484 128.943 245.484C128.943 250.255 125.076 254.121 120.305 254.121ZM132.493 245.484L132.493 241.934L128.943 241.934C122.212 241.934 116.755 247.39 116.755 254.121L116.755 257.672L120.305 257.672C127.036 257.672 132.493 252.215 132.493 245.484Z" fill="white"/>
<path d="M120.305 95.8363C120.305 91.0662 124.172 87.1988 128.943 87.1988C128.943 91.9697 125.076 95.8363 120.305 95.8363ZM132.493 87.1988L132.493 83.6484L128.943 83.6484C122.212 83.6484 116.755 89.1053 116.755 95.8363L116.755 99.3867L120.305 99.3867C127.036 99.3867 132.493 93.9298 132.493 87.1988Z" fill="white"/>
<path d="M120.305 332.621C120.305 327.851 124.172 323.984 128.943 323.984C128.943 328.755 125.076 332.621 120.305 332.621ZM132.493 323.984L132.493 320.434L128.943 320.434C122.212 320.434 116.755 325.89 116.755 332.621L116.755 336.172L120.305 336.172C127.036 336.172 132.493 330.715 132.493 323.984Z" fill="white"/>
<path d="M120.305 170.473C120.305 165.703 124.172 161.836 128.943 161.836C128.943 166.606 125.076 170.473 120.305 170.473ZM132.493 161.836L132.493 158.285L128.943 158.285C122.212 158.285 116.755 163.742 116.755 170.473L116.755 174.023L120.305 174.023C127.036 174.023 132.493 168.567 132.493 161.836Z" fill="white"/>
<path d="M120.306 12.1879C120.306 7.41773 124.173 3.55041 128.943 3.55041C128.943 8.32125 125.076 12.1879 120.306 12.1879ZM132.494 3.55041L132.494 0L128.943 -1.55188e-07C122.212 -4.49419e-07 116.755 5.45688 116.755 12.1879L116.755 15.7383L120.306 15.7383C127.037 15.7383 132.494 10.2814 132.494 3.55041Z" fill="white"/>
<path d="M120.305 812.45C120.305 807.679 124.172 803.812 128.943 803.812C128.943 808.583 125.076 812.45 120.305 812.45ZM132.493 803.812L132.493 800.262L128.943 800.262C122.212 800.262 116.755 805.719 116.755 812.45L116.755 816L120.305 816C127.036 816 132.493 810.543 132.493 803.812Z" fill="white"/>
<path d="M89.7885 684.343C89.7885 689.114 85.9213 692.981 81.1509 692.981C81.1509 688.21 85.0181 684.343 89.7885 684.343ZM77.6006 692.981L77.6006 696.531L81.1509 696.531C87.8821 696.531 93.3389 691.074 93.3389 684.343L93.3389 680.793L89.7886 680.793C83.0573 680.793 77.6006 686.25 77.6006 692.981Z" fill="white"/>
<path d="M120.305 684.897C120.305 689.451 124.172 693.142 128.943 693.142C128.943 688.588 125.076 684.897 120.305 684.897ZM132.493 693.142L132.493 696.531L128.943 696.531C122.212 696.531 116.755 691.322 116.755 684.897L116.755 681.508L120.305 681.508C127.036 681.508 132.493 686.717 132.493 693.142Z" fill="white"/>
<path d="M89.7885 811.896C89.7885 807.342 85.9213 803.651 81.1509 803.651C81.1509 808.205 85.0181 811.896 89.7885 811.896ZM77.6006 803.651L77.6006 800.262L81.1509 800.262C87.8821 800.262 93.3389 805.471 93.3389 811.896L93.3389 815.285L89.7886 815.285C83.0573 815.285 77.6006 810.076 77.6006 803.651Z" fill="white"/>
<path d="M120.305 605.491C120.305 610.044 124.172 613.736 128.943 613.736C128.943 609.182 125.076 605.491 120.305 605.491ZM132.493 613.736L132.493 617.125L128.943 617.125C122.212 617.125 116.755 611.916 116.755 605.491L116.755 602.102L120.305 602.102C127.036 602.102 132.493 607.311 132.493 613.736Z" fill="white"/>
<path d="M120.305 526.921C120.305 531.474 124.172 535.166 128.943 535.166C128.943 530.612 125.076 526.921 120.305 526.921ZM132.493 535.166L132.493 538.555L128.943 538.555C122.212 538.555 116.755 533.346 116.755 526.921L116.755 523.532L120.305 523.532C127.036 523.532 132.493 528.741 132.493 535.166Z" fill="white"/>
<path d="M120.305 447.53C120.305 452.084 124.172 455.775 128.943 455.775C128.943 451.221 125.076 447.53 120.305 447.53ZM132.493 455.775L132.493 459.164L128.943 459.164C122.212 459.164 116.755 453.955 116.755 447.53L116.755 444.141L120.305 444.141C127.036 444.141 132.493 449.35 132.493 455.775Z" fill="white"/>
<path d="M120.305 285.386C120.305 289.939 124.172 293.631 128.943 293.631C128.943 289.077 125.076 285.386 120.305 285.386ZM132.493 293.631L132.493 297.02L128.943 297.02C122.212 297.02 116.755 291.811 116.755 285.386L116.755 281.997L120.305 281.997C127.036 281.997 132.493 287.205 132.493 293.631Z" fill="white"/>
<path d="M120.305 127.097C120.305 131.65 124.172 135.341 128.943 135.341C128.943 130.787 125.076 127.097 120.305 127.097ZM132.493 135.341L132.493 138.73L128.943 138.73C122.212 138.73 116.755 133.522 116.755 127.097L116.755 123.708L120.305 123.708C127.036 123.708 132.493 128.916 132.493 135.341Z" fill="white"/>
<path d="M120.305 363.886C120.305 368.439 124.172 372.131 128.943 372.131C128.943 367.577 125.076 363.886 120.305 363.886ZM132.493 372.131L132.493 375.52L128.943 375.52C122.212 375.52 116.755 370.311 116.755 363.886L116.755 360.497L120.305 360.497C127.036 360.497 132.493 365.705 132.493 372.131Z" fill="white"/>
<path d="M120.305 201.737C120.305 206.291 124.172 209.982 128.943 209.982C128.943 205.428 125.076 201.737 120.305 201.737ZM132.493 209.982L132.493 213.371L128.943 213.371C122.212 213.371 116.755 208.162 116.755 201.737L116.755 198.348L120.305 198.348C127.036 198.348 132.493 203.557 132.493 209.982Z" fill="white"/>
<path d="M120.305 43.4482C120.305 48.0015 124.172 51.693 128.943 51.693C128.943 47.139 125.076 43.4482 120.305 43.4482ZM132.493 51.693L132.493 55.082L128.943 55.082C122.212 55.082 116.755 49.8732 116.755 43.4482L116.755 40.0591L120.305 40.0591C127.036 40.0591 132.493 45.268 132.493 51.693Z" fill="white"/>
<path d="M89.7885 653.083C89.7885 648.53 85.9213 644.838 81.1509 644.838C81.1509 649.392 85.0181 653.083 89.7885 653.083ZM77.6006 644.838L77.6006 641.449L81.1509 641.449C87.8821 641.449 93.3389 646.658 93.3389 653.083L93.3389 656.472L89.7886 656.472C83.0573 656.472 77.6006 651.263 77.6006 644.838Z" fill="white"/>
<path d="M120.305 732.489C120.305 727.936 124.172 724.244 128.943 724.244C128.943 728.798 125.076 732.489 120.305 732.489ZM132.493 724.244L132.493 720.855L128.943 720.855C122.212 720.855 116.755 726.064 116.755 732.489L116.755 735.878L120.305 735.878C127.036 735.878 132.493 730.67 132.493 724.244Z" fill="white"/>
<path d="M89.7885 764.304C89.7885 768.857 85.9213 772.548 81.1509 772.548C81.1509 767.994 85.0181 764.304 89.7885 764.304ZM77.6006 772.548L77.6006 775.938L81.1509 775.938C87.8821 775.938 93.3389 770.729 93.3389 764.304L93.3389 760.915L89.7886 760.915C83.0573 760.915 77.6006 766.123 77.6006 772.548Z" fill="white"/>
<path d="M89.7885 605.491C89.7885 610.044 85.9213 613.736 81.1509 613.736C81.1509 609.182 85.0181 605.491 89.7885 605.491ZM77.6006 613.736L77.6006 617.125L81.1509 617.125C87.8821 617.125 93.3389 611.916 93.3389 605.491L93.3389 602.102L89.7886 602.102C83.0573 602.102 77.6006 607.311 77.6006 613.736Z" fill="white"/>
<path d="M89.7885 526.921C89.7885 531.474 85.9213 535.166 81.1509 535.166C81.1509 530.612 85.0181 526.921 89.7885 526.921ZM77.6006 535.166L77.6006 538.555L81.1509 538.555C87.8821 538.555 93.3389 533.346 93.3389 526.921L93.3389 523.532L89.7886 523.532C83.0573 523.532 77.6006 528.741 77.6006 535.166Z" fill="white"/>
<path d="M89.7885 447.53C89.7885 452.084 85.9213 455.775 81.1509 455.775C81.1509 451.221 85.0181 447.53 89.7885 447.53ZM77.6006 455.775L77.6006 459.164L81.1509 459.164C87.8821 459.164 93.3389 453.955 93.3389 447.53L93.3389 444.141L89.7886 444.141C83.0573 444.141 77.6006 449.35 77.6006 455.775Z" fill="white"/>
<path d="M89.7885 285.386C89.7885 289.939 85.9213 293.631 81.1509 293.631C81.1509 289.077 85.0181 285.386 89.7885 285.386ZM77.6006 293.631L77.6006 297.02L81.1509 297.02C87.8821 297.02 93.3389 291.811 93.3389 285.386L93.3389 281.997L89.7886 281.997C83.0573 281.997 77.6006 287.205 77.6006 293.631Z" fill="white"/>
<path d="M89.7885 127.097C89.7885 131.65 85.9213 135.341 81.1509 135.341C81.1509 130.787 85.0181 127.097 89.7885 127.097ZM77.6006 135.341L77.6006 138.73L81.1509 138.73C87.8821 138.73 93.3389 133.522 93.3389 127.097L93.3389 123.708L89.7886 123.708C83.0573 123.708 77.6006 128.916 77.6006 135.341Z" fill="white"/>
<path d="M89.7885 363.886C89.7885 368.439 85.9213 372.131 81.1509 372.131C81.1509 367.577 85.0181 363.886 89.7885 363.886ZM77.6006 372.131L77.6006 375.52L81.1509 375.52C87.8821 375.52 93.3389 370.311 93.3389 363.886L93.3389 360.497L89.7886 360.497C83.0573 360.497 77.6006 365.705 77.6006 372.131Z" fill="white"/>
<path d="M89.7885 201.737C89.7885 206.291 85.9213 209.982 81.1509 209.982C81.1509 205.428 85.0181 201.737 89.7885 201.737ZM77.6006 209.982L77.6006 213.371L81.1509 213.371C87.8821 213.371 93.3389 208.162 93.3389 201.737L93.3389 198.348L89.7886 198.348C83.0573 198.348 77.6006 203.557 77.6006 209.982Z" fill="white"/>
<path d="M89.7885 43.4482C89.7885 48.0015 85.9213 51.693 81.1509 51.693C81.1509 47.139 85.0181 43.4482 89.7885 43.4482ZM77.6006 51.693L77.6006 55.082L81.1509 55.082C87.8821 55.082 93.3389 49.8732 93.3389 43.4482L93.3389 40.0591L89.7886 40.0591C83.0573 40.0591 77.6006 45.268 77.6006 51.693Z" fill="white"/>
<path d="M120.305 763.75C120.305 768.52 124.172 772.387 128.943 772.387C128.943 767.616 125.076 763.75 120.305 763.75ZM132.493 772.387L132.493 775.938L128.943 775.937C122.212 775.937 116.755 770.481 116.755 763.75L116.755 760.199L120.305 760.199C127.036 760.199 132.493 765.656 132.493 772.387Z" fill="white"/>
<path d="M89.7885 733.043C89.7885 728.273 85.9213 724.406 81.1509 724.406C81.1509 729.177 85.0181 733.043 89.7885 733.043ZM77.6006 724.406L77.6006 720.855L81.1509 720.855C87.8821 720.855 93.3389 726.312 93.3389 733.043L93.3389 736.594L89.7886 736.594C83.0573 736.594 77.6006 731.137 77.6006 724.406Z" fill="white"/>
<path d="M89.7885 574.227C89.7885 569.457 85.9213 565.589 81.1509 565.589C81.1509 570.36 85.0181 574.227 89.7885 574.227ZM77.6006 565.589L77.6006 562.039L81.1509 562.039C87.8821 562.039 93.3389 567.496 93.3389 574.227L93.3389 577.777L89.7886 577.777C83.0573 577.777 77.6006 572.32 77.6006 565.589Z" fill="white"/>
<path d="M89.7885 495.661C89.7885 490.89 85.9213 487.023 81.1509 487.023C81.1509 491.794 85.0181 495.661 89.7885 495.661ZM77.6006 487.023L77.6006 483.473L81.1509 483.473C87.8821 483.473 93.3389 488.93 93.3389 495.661L93.3389 499.211L89.7886 499.211C83.0573 499.211 77.6006 493.754 77.6006 487.023Z" fill="white"/>
<path d="M89.7885 416.27C89.7885 411.5 85.9213 407.632 81.1509 407.632C81.1509 412.403 85.0181 416.27 89.7885 416.27ZM77.6006 407.632L77.6006 404.082L81.1509 404.082C87.8821 404.082 93.3389 409.539 93.3389 416.27L93.3389 419.82L89.7886 419.82C83.0573 419.82 77.6006 414.363 77.6006 407.632Z" fill="white"/>
<path d="M89.7885 254.121C89.7885 249.351 85.9213 245.484 81.1509 245.484C81.1509 250.255 85.0181 254.121 89.7885 254.121ZM77.6006 245.484L77.6006 241.934L81.1509 241.934C87.8821 241.934 93.3389 247.39 93.3389 254.121L93.3389 257.672L89.7886 257.672C83.0573 257.672 77.6006 252.215 77.6006 245.484Z" fill="white"/>
<path d="M89.7885 95.8363C89.7885 91.0662 85.9213 87.1988 81.1509 87.1988C81.1509 91.9697 85.0181 95.8363 89.7885 95.8363ZM77.6006 87.1988L77.6006 83.6484L81.1509 83.6484C87.8821 83.6484 93.3389 89.1053 93.3389 95.8363L93.3389 99.3867L89.7886 99.3867C83.0573 99.3867 77.6006 93.9298 77.6006 87.1988Z" fill="white"/>
<path d="M89.7885 332.621C89.7885 327.851 85.9213 323.984 81.1509 323.984C81.1509 328.755 85.0181 332.621 89.7885 332.621ZM77.6006 323.984L77.6006 320.434L81.1509 320.434C87.8821 320.434 93.3389 325.89 93.3389 332.621L93.3389 336.172L89.7886 336.172C83.0573 336.172 77.6006 330.715 77.6006 323.984Z" fill="white"/>
<path d="M89.7885 170.473C89.7885 165.703 85.9213 161.836 81.1509 161.836C81.1509 166.606 85.0181 170.473 89.7885 170.473ZM77.6006 161.836L77.6006 158.285L81.1509 158.285C87.8821 158.285 93.3389 163.742 93.3389 170.473L93.3389 174.023L89.7886 174.023C83.0573 174.023 77.6006 168.567 77.6006 161.836Z" fill="white"/>
<path d="M89.7885 12.1879C89.7885 7.41773 85.9213 3.55041 81.1509 3.55041C81.1509 8.32125 85.0181 12.1879 89.7885 12.1879ZM77.6006 3.55041L77.6006 0L81.1509 4.65564e-07C87.8821 1.34826e-06 93.3389 5.45689 93.3389 12.1879L93.3389 15.7383L89.7886 15.7383C83.0573 15.7383 77.6006 10.2814 77.6006 3.55041Z" fill="white"/>
<path d="M42.7051 653.637C42.7051 648.867 46.5723 645 51.3428 645C51.3428 649.77 47.4756 653.637 42.7051 653.637ZM54.8931 645L54.8931 641.449L51.3428 641.449C44.6116 641.449 39.1548 646.906 39.1548 653.637L39.1548 657.187L42.7051 657.187C49.4364 657.187 54.8931 651.731 54.8931 645Z" fill="white"/>
<path d="M42.7042 574.227C42.7042 569.457 46.5714 565.589 51.3418 565.589C51.3418 570.36 47.4746 574.227 42.7042 574.227ZM54.8921 565.589L54.8921 562.039L51.3418 562.039C44.6106 562.039 39.1538 567.496 39.1538 574.227L39.1538 577.777L42.7041 577.777C49.4354 577.777 54.8921 572.32 54.8921 565.589Z" fill="white"/>
<path d="M42.7042 495.661C42.7042 490.89 46.5714 487.023 51.3418 487.023C51.3418 491.794 47.4746 495.661 42.7042 495.661ZM54.8921 487.023L54.8921 483.473L51.3418 483.473C44.6106 483.473 39.1538 488.93 39.1538 495.661L39.1538 499.211L42.7041 499.211C49.4354 499.211 54.8921 493.754 54.8921 487.023Z" fill="white"/>
<path d="M42.7051 416.27C42.7051 411.5 46.5723 407.632 51.3428 407.632C51.3428 412.403 47.4756 416.27 42.7051 416.27ZM54.8931 407.632L54.8931 404.082L51.3428 404.082C44.6116 404.082 39.1548 409.539 39.1548 416.27L39.1548 419.82L42.7051 419.82C49.4364 419.82 54.8931 414.363 54.8931 407.632Z" fill="white"/>
<path d="M42.7051 254.121C42.7051 249.351 46.5723 245.484 51.3428 245.484C51.3428 250.255 47.4756 254.121 42.7051 254.121ZM54.8931 245.484L54.8931 241.934L51.3428 241.934C44.6116 241.934 39.1548 247.39 39.1548 254.121L39.1548 257.672L42.7051 257.672C49.4364 257.672 54.8931 252.215 54.8931 245.484Z" fill="white"/>
<path d="M42.7051 95.8363C42.7051 91.0662 46.5723 87.1988 51.3428 87.1988C51.3428 91.9697 47.4756 95.8363 42.7051 95.8363ZM54.8931 87.1988L54.8931 83.6484L51.3428 83.6484C44.6116 83.6484 39.1548 89.1053 39.1548 95.8363L39.1548 99.3867L42.7051 99.3867C49.4364 99.3867 54.8931 93.9298 54.8931 87.1988Z" fill="white"/>
<path d="M42.7051 332.621C42.7051 327.851 46.5723 323.984 51.3428 323.984C51.3428 328.755 47.4756 332.621 42.7051 332.621ZM54.8931 323.984L54.8931 320.434L51.3428 320.434C44.6116 320.434 39.1548 325.89 39.1548 332.621L39.1548 336.172L42.7051 336.172C49.4364 336.172 54.8931 330.715 54.8931 323.984Z" fill="white"/>
<path d="M42.7051 170.473C42.7051 165.703 46.5723 161.836 51.3428 161.836C51.3428 166.606 47.4756 170.473 42.7051 170.473ZM54.8931 161.836L54.8931 158.285L51.3428 158.285C44.6116 158.285 39.1548 163.742 39.1548 170.473L39.1548 174.023L42.7051 174.023C49.4364 174.023 54.8931 168.567 54.8931 161.836Z" fill="white"/>
<path d="M42.7051 812.45C42.7051 807.679 46.5723 803.812 51.3428 803.812C51.3428 808.583 47.4756 812.45 42.7051 812.45ZM54.8931 803.812L54.8931 800.262L51.3428 800.262C44.6116 800.262 39.1548 805.719 39.1548 812.45L39.1548 816L42.7051 816C49.4364 816 54.8931 810.543 54.8931 803.812Z" fill="white"/>
<path d="M12.1879 684.343C12.1879 689.114 8.32072 692.981 3.55028 692.981C3.55029 688.21 7.41748 684.343 12.1879 684.343ZM4.6558e-07 692.981L0 696.531L3.55028 696.531C10.2815 696.531 15.7383 691.074 15.7383 684.343L15.7383 680.793L12.188 680.793C5.4567 680.793 1.34824e-06 686.25 4.6558e-07 692.981Z" fill="white"/>
<path d="M42.7052 684.897C42.7052 689.451 46.5723 693.142 51.3428 693.142C51.3428 688.588 47.4756 684.897 42.7052 684.897ZM54.8931 693.142L54.8931 696.531L51.3428 696.531C44.6116 696.531 39.1548 691.322 39.1548 684.897L39.1548 681.508L42.7051 681.508C49.4364 681.508 54.8931 686.717 54.8931 693.142Z" fill="white"/>
<path d="M12.1879 811.896C12.1879 807.342 8.32072 803.651 3.55028 803.651C3.55028 808.205 7.41748 811.896 12.1879 811.896ZM-4.44417e-07 803.651L0 800.262L3.55028 800.262C10.2815 800.262 15.7383 805.471 15.7383 811.896L15.7383 815.285L12.188 815.285C5.4567 815.285 -1.28696e-06 810.076 -4.44417e-07 803.651Z" fill="white"/>
<path d="M42.7052 605.491C42.7052 610.044 46.5723 613.736 51.3428 613.736C51.3428 609.182 47.4756 605.491 42.7052 605.491ZM54.8931 613.736L54.8931 617.125L51.3428 617.125C44.6116 617.125 39.1548 611.916 39.1548 605.491L39.1548 602.102L42.7051 602.102C49.4364 602.102 54.8931 607.311 54.8931 613.736Z" fill="white"/>
<path d="M42.7052 526.921C42.7052 531.474 46.5723 535.166 51.3428 535.166C51.3428 530.612 47.4756 526.921 42.7052 526.921ZM54.8931 535.166L54.8931 538.555L51.3428 538.555C44.6116 538.555 39.1548 533.346 39.1548 526.921L39.1548 523.532L42.7051 523.532C49.4364 523.532 54.8931 528.741 54.8931 535.166Z" fill="white"/>
<path d="M42.7052 447.53C42.7052 452.084 46.5723 455.775 51.3428 455.775C51.3428 451.221 47.4756 447.53 42.7052 447.53ZM54.8931 455.775L54.8931 459.164L51.3428 459.164C44.6116 459.164 39.1548 453.955 39.1548 447.53L39.1548 444.141L42.7051 444.141C49.4364 444.141 54.8931 449.35 54.8931 455.775Z" fill="white"/>
<path d="M42.7052 285.386C42.7052 289.939 46.5723 293.631 51.3428 293.631C51.3428 289.077 47.4756 285.386 42.7052 285.386ZM54.8931 293.631L54.8931 297.02L51.3428 297.02C44.6116 297.02 39.1548 291.811 39.1548 285.386L39.1548 281.997L42.7051 281.997C49.4364 281.997 54.8931 287.205 54.8931 293.631Z" fill="white"/>
<path d="M42.7052 127.097C42.7052 131.65 46.5723 135.341 51.3428 135.341C51.3428 130.787 47.4756 127.097 42.7052 127.097ZM54.8931 135.341L54.8931 138.73L51.3428 138.73C44.6116 138.73 39.1548 133.522 39.1548 127.097L39.1548 123.708L42.7051 123.708C49.4364 123.708 54.8931 128.916 54.8931 135.341Z" fill="white"/>
<path d="M42.7052 363.886C42.7052 368.439 46.5723 372.131 51.3428 372.131C51.3428 367.577 47.4756 363.886 42.7052 363.886ZM54.8931 372.131L54.8931 375.52L51.3428 375.52C44.6116 375.52 39.1548 370.311 39.1548 363.886L39.1548 360.497L42.7051 360.497C49.4364 360.497 54.8931 365.705 54.8931 372.131Z" fill="white"/>
<path d="M42.7052 201.737C42.7052 206.291 46.5723 209.982 51.3428 209.982C51.3428 205.428 47.4756 201.737 42.7052 201.737ZM54.8931 209.982L54.8931 213.371L51.3428 213.371C44.6116 213.371 39.1548 208.162 39.1548 201.737L39.1548 198.348L42.7051 198.348C49.4364 198.348 54.8931 203.557 54.8931 209.982Z" fill="white"/>
<path d="M12.1879 653.083C12.1879 648.53 8.32072 644.838 3.55028 644.838C3.55028 649.392 7.41748 653.083 12.1879 653.083ZM-4.44417e-07 644.838L0 641.449L3.55028 641.449C10.2815 641.449 15.7383 646.658 15.7383 653.083L15.7383 656.472L12.188 656.472C5.4567 656.472 -1.28696e-06 651.263 -4.44417e-07 644.838Z" fill="white"/>
<path d="M42.7051 732.489C42.7051 727.936 46.5723 724.244 51.3428 724.244C51.3428 728.798 47.4756 732.489 42.7051 732.489ZM54.8931 724.244L54.8931 720.855L51.3428 720.855C44.6116 720.855 39.1548 726.064 39.1548 732.489L39.1548 735.878L42.7051 735.878C49.4364 735.878 54.8931 730.67 54.8931 724.244Z" fill="white"/>
<path d="M12.1879 764.304C12.1879 768.857 8.32072 772.548 3.55028 772.548C3.55029 767.994 7.41748 764.304 12.1879 764.304ZM4.44417e-07 772.548L0 775.938L3.55028 775.938C10.2815 775.938 15.7383 770.729 15.7383 764.304L15.7383 760.915L12.188 760.915C5.4567 760.915 1.28696e-06 766.123 4.44417e-07 772.548Z" fill="white"/>
<path d="M12.1879 605.491C12.1879 610.044 8.32072 613.736 3.55028 613.736C3.55029 609.182 7.41748 605.491 12.1879 605.491ZM4.44417e-07 613.736L0 617.125L3.55028 617.125C10.2815 617.125 15.7383 611.916 15.7383 605.491L15.7383 602.102L12.188 602.102C5.4567 602.102 1.28696e-06 607.311 4.44417e-07 613.736Z" fill="white"/>
<path d="M12.1879 526.921C12.1879 531.474 8.32072 535.166 3.55028 535.166C3.55029 530.612 7.41748 526.921 12.1879 526.921ZM4.44417e-07 535.166L0 538.555L3.55028 538.555C10.2815 538.555 15.7383 533.346 15.7383 526.921L15.7383 523.532L12.188 523.532C5.4567 523.532 1.28696e-06 528.741 4.44417e-07 535.166Z" fill="white"/>
<path d="M12.1879 447.53C12.1879 452.084 8.32072 455.775 3.55028 455.775C3.55029 451.221 7.41748 447.53 12.1879 447.53ZM4.44417e-07 455.775L0 459.164L3.55028 459.164C10.2815 459.164 15.7383 453.955 15.7383 447.53L15.7383 444.141L12.188 444.141C5.4567 444.141 1.28696e-06 449.35 4.44417e-07 455.775Z" fill="white"/>
<path d="M12.1879 285.386C12.1879 289.939 8.32072 293.631 3.55028 293.631C3.55029 289.077 7.41748 285.386 12.1879 285.386ZM4.44417e-07 293.631L0 297.02L3.55028 297.02C10.2815 297.02 15.7383 291.811 15.7383 285.386L15.7383 281.997L12.188 281.997C5.4567 281.997 1.28696e-06 287.205 4.44417e-07 293.631Z" fill="white"/>
<path d="M12.1879 127.097C12.1879 131.65 8.32072 135.341 3.55028 135.341C3.55029 130.787 7.41748 127.097 12.1879 127.097ZM4.44417e-07 135.341L0 138.73L3.55028 138.73C10.2815 138.73 15.7383 133.522 15.7383 127.097L15.7383 123.708L12.188 123.708C5.4567 123.708 1.28696e-06 128.916 4.44417e-07 135.341Z" fill="white"/>
<path d="M12.1879 363.886C12.1879 368.439 8.32072 372.131 3.55028 372.131C3.55029 367.577 7.41748 363.886 12.1879 363.886ZM4.44417e-07 372.131L0 375.52L3.55028 375.52C10.2815 375.52 15.7383 370.311 15.7383 363.886L15.7383 360.497L12.188 360.497C5.4567 360.497 1.28696e-06 365.705 4.44417e-07 372.131Z" fill="white"/>
<path d="M12.1879 201.737C12.1879 206.291 8.32072 209.982 3.55028 209.982C3.55029 205.428 7.41748 201.737 12.1879 201.737ZM4.44417e-07 209.982L0 213.371L3.55028 213.371C10.2815 213.371 15.7383 208.162 15.7383 201.737L15.7383 198.348L12.188 198.348C5.4567 198.348 1.28696e-06 203.557 4.44417e-07 209.982Z" fill="white"/>
<path d="M42.7052 763.75C42.7052 768.52 46.5723 772.387 51.3428 772.387C51.3428 767.616 47.4756 763.75 42.7052 763.75ZM54.8931 772.387L54.8931 775.938L51.3428 775.937C44.6116 775.937 39.1548 770.481 39.1548 763.75L39.1548 760.199L42.7051 760.199C49.4364 760.199 54.8931 765.656 54.8931 772.387Z" fill="white"/>
<path d="M12.1879 733.043C12.1879 728.273 8.32072 724.406 3.55028 724.406C3.55028 729.177 7.41748 733.043 12.1879 733.043ZM-4.6558e-07 724.406L0 720.855L3.55028 720.855C10.2815 720.855 15.7383 726.312 15.7383 733.043L15.7383 736.594L12.188 736.594C5.4567 736.594 -1.34824e-06 731.137 -4.6558e-07 724.406Z" fill="white"/>
<path d="M12.1879 574.227C12.1879 569.457 8.32072 565.589 3.55028 565.589C3.55028 570.36 7.41748 574.227 12.1879 574.227ZM-4.6558e-07 565.589L0 562.039L3.55028 562.039C10.2815 562.039 15.7383 567.496 15.7383 574.227L15.7383 577.777L12.188 577.777C5.4567 577.777 -1.34824e-06 572.32 -4.6558e-07 565.589Z" fill="white"/>
<path d="M12.1879 495.661C12.1879 490.89 8.32072 487.023 3.55028 487.023C3.55028 491.794 7.41748 495.661 12.1879 495.661ZM-4.6558e-07 487.023L0 483.473L3.55028 483.473C10.2815 483.473 15.7383 488.93 15.7383 495.661L15.7383 499.211L12.188 499.211C5.4567 499.211 -1.34824e-06 493.754 -4.6558e-07 487.023Z" fill="white"/>
<path d="M12.1879 416.27C12.1879 411.5 8.32072 407.632 3.55028 407.632C3.55028 412.403 7.41748 416.27 12.1879 416.27ZM-4.6558e-07 407.632L0 404.082L3.55028 404.082C10.2815 404.082 15.7383 409.539 15.7383 416.27L15.7383 419.82L12.188 419.82C5.4567 419.82 -1.34824e-06 414.363 -4.6558e-07 407.632Z" fill="white"/>
<path d="M12.1879 254.121C12.1879 249.351 8.32072 245.484 3.55028 245.484C3.55028 250.255 7.41748 254.121 12.1879 254.121ZM-4.6558e-07 245.484L0 241.934L3.55028 241.934C10.2815 241.934 15.7383 247.39 15.7383 254.121L15.7383 257.672L12.188 257.672C5.4567 257.672 -1.34824e-06 252.215 -4.6558e-07 245.484Z" fill="white"/>
<path d="M12.1879 95.8363C12.1879 91.0662 8.32072 87.1988 3.55028 87.1988C3.55028 91.9697 7.41748 95.8363 12.1879 95.8363ZM-4.6558e-07 87.1988L0 83.6484L3.55028 83.6484C10.2815 83.6484 15.7383 89.1053 15.7383 95.8363L15.7383 99.3867L12.188 99.3867C5.4567 99.3867 -1.34824e-06 93.9298 -4.6558e-07 87.1988Z" fill="white"/>
<path d="M12.1879 332.621C12.1879 327.851 8.32072 323.984 3.55028 323.984C3.55028 328.755 7.41748 332.621 12.1879 332.621ZM-4.6558e-07 323.984L0 320.434L3.55028 320.434C10.2815 320.434 15.7383 325.89 15.7383 332.621L15.7383 336.172L12.188 336.172C5.4567 336.172 -1.34824e-06 330.715 -4.6558e-07 323.984Z" fill="white"/>
<path d="M12.1879 170.473C12.1879 165.703 8.32072 161.836 3.55028 161.836C3.55028 166.606 7.41748 170.473 12.1879 170.473ZM-4.6558e-07 161.836L0 158.285L3.55028 158.285C10.2815 158.285 15.7383 163.742 15.7383 170.473L15.7383 174.023L12.188 174.023C5.4567 174.023 -1.34824e-06 168.567 -4.6558e-07 161.836Z" fill="white"/>
<path d="M42.7051 12.1879C42.7051 7.41773 46.5723 3.55041 51.3428 3.55041C51.3428 8.32125 47.4756 12.1879 42.7051 12.1879ZM54.8931 3.55041L54.8931 0L51.3428 -1.55188e-07C44.6116 -4.49419e-07 39.1548 5.45688 39.1548 12.1879L39.1548 15.7383L42.7051 15.7383C49.4364 15.7383 54.8931 10.2814 54.8931 3.55041Z" fill="white"/>
<path d="M42.7052 43.4482C42.7052 48.0015 46.5723 51.693 51.3428 51.693C51.3428 47.139 47.4756 43.4482 42.7052 43.4482ZM54.8931 51.693L54.8931 55.082L51.3428 55.082C44.6116 55.082 39.1548 49.8732 39.1548 43.4482L39.1548 40.0591L42.7051 40.0591C49.4364 40.0591 54.8931 45.268 54.8931 51.693Z" fill="white"/>
<path d="M12.1879 43.4482C12.1879 48.0015 8.32072 51.693 3.55028 51.693C3.55029 47.139 7.41748 43.4482 12.1879 43.4482ZM4.44417e-07 51.693L0 55.082L3.55028 55.082C10.2815 55.082 15.7383 49.8732 15.7383 43.4482L15.7383 40.0591L12.188 40.0591C5.4567 40.0591 1.28696e-06 45.268 4.44417e-07 51.693Z" fill="white"/>
<path d="M12.1879 12.1879C12.1879 7.41773 8.32072 3.55041 3.55028 3.55041C3.55028 8.32125 7.41748 12.1879 12.1879 12.1879ZM-4.6558e-07 3.55041L0 0L3.55028 4.65564e-07C10.2815 1.34826e-06 15.7383 5.45689 15.7383 12.1879L15.7383 15.7383L12.188 15.7383C5.4567 15.7383 -1.34824e-06 10.2814 -4.6558e-07 3.55041Z" fill="white"/>
</g>
</svg>
